<svg width="488" height="408" viewBox="0 0 488 408" fill="none" xmlns="http://www.w3.org/2000/svg">
<g opacity="0.41">
<path opacity="0.41" d="M487.635 260.373C488.103 252.401 487.888 244.404 486.992 236.469C482.779 199.195 463.676 164.053 435.55 139.26C425.531 130.413 414.103 122.486 407.577 110.818C396.593 91.1459 397.42 68.5455 383.786 49.1343C369.968 29.5216 350.386 14.7079 327.763 6.75475C260.833 -16.459 167.125 21.3361 175.566 102.047C175.566 102.334 175.597 102.748 175.658 103.289C175.914 107.253 175.363 111.228 174.04 114.972C172.718 118.717 170.65 122.155 167.962 125.077C165.274 127.999 162.023 130.346 158.403 131.974C154.784 133.603 150.872 134.48 146.904 134.553C85.1519 136.009 32.0093 183.617 20.6271 244.028C13.3045 282.851 25.2229 325.399 53.6554 352.891C74.8267 373.39 103.244 384.66 131.676 392.388C188.68 407.904 248.67 411.155 307.435 405.221C362.461 399.671 420.491 383.847 456.031 341.483C474.962 318.525 486.039 290.097 487.635 260.373Z" fill="#C5D9FF"/>
</g>
<g opacity="0.88">
<path opacity="0.88" d="M436.852 264.175C437.22 257.932 437.051 251.669 436.346 245.454C432.698 215.984 418.36 188.881 396.056 169.297C388.198 162.366 379.205 156.157 374.135 147.018C365.525 131.686 366.184 113.9 355.491 98.6896C344.667 83.3314 329.332 71.729 311.617 65.4943C259.179 47.3097 185.769 76.9171 192.387 140.149C192.387 140.364 192.387 140.701 192.387 141.115C192.595 144.225 192.169 147.344 191.136 150.284C190.102 153.224 188.483 155.923 186.375 158.218C184.268 160.512 181.716 162.354 178.876 163.631C176.036 164.908 172.966 165.594 169.852 165.647C121.474 166.797 79.8361 204.133 70.9203 251.419C65.1908 281.823 74.5816 315.157 96.8098 336.684C113.431 352.645 135.736 361.507 157.995 367.579C202.651 379.723 249.65 382.283 295.685 377.622C338.793 373.283 384.245 360.879 412.111 327.684C426.927 309.704 435.597 287.447 436.852 264.175Z" fill="#C5EAFF"/>
</g>
<path opacity="0.31" d="M473.982 63.6909C475.907 55.5667 470.887 47.4191 462.77 45.4926C454.653 43.5662 446.513 48.5904 444.588 56.7146C442.663 64.8387 447.683 72.9864 455.8 74.9129C463.917 76.8393 472.058 71.8151 473.982 63.6909Z" fill="#C5D9FF"/>
<path opacity="0.31" d="M139.954 55.0505C146.792 48.2065 146.792 37.1101 139.954 30.266C133.116 23.422 122.03 23.422 115.191 30.266C108.353 37.1101 108.353 48.2065 115.191 55.0505C122.03 61.8945 133.116 61.8945 139.954 55.0505Z" fill="#C5D9FF"/>
<path opacity="0.31" d="M22.6801 402.001C35.1679 402.001 45.2913 391.869 45.2913 379.37C45.2913 366.871 35.1679 356.739 22.6801 356.739C10.1922 356.739 0.0688477 366.871 0.0688477 379.37C0.0688477 391.869 10.1922 402.001 22.6801 402.001Z" fill="#C5D9FF"/>
<path d="M112.823 112.108L183.739 211.598C187.037 216.226 191.214 220.158 196.031 223.17C200.848 226.182 206.211 228.214 211.813 229.151C217.416 230.088 223.148 229.911 228.683 228.63C234.218 227.35 239.447 224.99 244.071 221.687L255.96 213.197C257.028 212.437 257.937 211.473 258.632 210.361C259.328 209.249 259.798 208.01 260.014 206.716C260.23 205.422 260.189 204.098 259.893 202.82C259.597 201.542 259.052 200.335 258.289 199.269L229.353 158.675C227.815 156.522 225.486 155.068 222.877 154.632C220.268 154.196 217.593 154.813 215.438 156.348L195.138 170.831C194.763 171.102 194.337 171.295 193.886 171.4C193.436 171.505 192.968 171.52 192.512 171.444C192.056 171.367 191.619 171.201 191.227 170.955C190.835 170.709 190.495 170.388 190.228 170.01L155.158 120.773C154.622 120.019 154.407 119.083 154.56 118.17C154.713 117.257 155.221 116.442 155.973 115.904L175.975 101.62C177.043 100.86 177.952 99.8959 178.647 98.7837C179.343 97.6716 179.813 96.433 180.029 95.139C180.246 93.8449 180.204 92.5209 179.908 91.243C179.612 89.965 179.067 88.7581 178.304 87.6917L148.591 45.9886C147.068 43.8582 144.771 42.4104 142.193 41.956C139.615 41.5016 136.961 42.0768 134.801 43.5582L123.568 51.287C118.835 54.544 114.796 58.7114 111.687 63.5462C108.579 68.381 106.462 73.7864 105.462 79.4474C104.462 85.1085 104.598 90.9118 105.862 96.5191C107.125 102.126 109.492 107.426 112.823 112.108Z" fill="#6F63FF"/>
<path d="M125.426 53.3697L165.268 109.265L167.188 107.908L176.007 101.61C177.076 100.85 177.984 99.8858 178.68 98.7737C179.376 97.6615 179.845 96.4229 180.062 95.1289C180.278 93.8349 180.237 92.5109 179.941 91.2329C179.645 89.9549 179.1 88.748 178.337 87.6816L148.591 45.9886C147.068 43.8581 144.771 42.4104 142.193 41.956C139.615 41.5016 136.961 42.0768 134.801 43.5582L123.568 51.2869L125.426 53.3697Z" fill="#D9E3ED"/>
<path d="M206.752 165.467L246.61 221.365L248.515 220.005L257.334 213.707C259.486 212.167 260.939 209.835 261.376 207.224C261.813 204.613 261.197 201.935 259.663 199.779L229.936 158.073C228.417 155.941 226.122 154.491 223.546 154.037C220.969 153.583 218.317 154.161 216.161 155.645L204.928 163.374L206.752 165.467Z" fill="#D9E3ED"/>
<path d="M360.072 381.992L246.862 365.233C240.716 364.32 235.184 361.002 231.481 356.008C227.778 351.014 226.208 344.753 227.116 338.6L267.712 63.869C268.62 57.7146 271.934 52.1733 276.924 48.464C281.914 44.7548 288.172 43.1813 294.322 44.0898L407.562 60.8485C413.708 61.7613 419.24 65.0795 422.943 70.0736C426.646 75.0677 428.216 81.3291 427.308 87.4814L386.712 362.213C386.261 365.262 385.213 368.193 383.63 370.837C382.047 373.482 379.959 375.788 377.485 377.625C375.011 379.461 372.2 380.792 369.212 381.542C366.225 382.291 363.119 382.444 360.072 381.992V381.992Z" fill="#005791"/>
<path d="M276.502 69.7362L238.178 329.182L378.737 349.981L417.061 90.5353L276.502 69.7362Z" fill="#ECF1F7"/>
<path d="M276.495 69.733L273.618 89.2085L414.176 110.008L417.053 90.5322L276.495 69.733Z" fill="#2592CF"/>
<path d="M306.086 364.911C305.635 364.913 305.184 364.877 304.738 364.804C302.407 364.443 300.307 363.191 298.879 361.312C297.45 359.433 296.806 357.073 297.08 354.728C297.354 352.383 298.526 350.236 300.349 348.738C302.172 347.24 304.504 346.507 306.856 346.694C309.207 346.881 311.395 347.974 312.958 349.742C314.522 351.509 315.34 353.815 315.24 356.174C315.14 358.533 314.131 360.761 312.424 362.39C310.717 364.02 308.445 364.923 306.086 364.911V364.911ZM306.086 348.045C304.618 348.043 303.18 348.463 301.943 349.256C300.707 350.048 299.724 351.18 299.112 352.516C298.5 353.852 298.284 355.335 298.491 356.79C298.697 358.245 299.318 359.61 300.277 360.723C301.237 361.835 302.496 362.648 303.904 363.064C305.312 363.48 306.81 363.483 308.22 363.071C309.629 362.659 310.891 361.851 311.855 360.742C312.818 359.633 313.443 358.27 313.654 356.816C313.944 354.812 313.43 352.775 312.225 351.149C311.019 349.523 309.22 348.44 307.22 348.137C306.84 348.076 306.456 348.045 306.071 348.045H306.086Z" fill="#ECF1F7"/>
<path d="M326.369 67.273C326.227 67.2881 326.083 67.2881 325.941 67.273C325.556 67.2205 325.186 67.092 324.851 66.8949C324.517 66.6978 324.225 66.4361 323.993 66.125C323.76 65.814 323.592 65.4597 323.498 65.083C323.404 64.7062 323.385 64.3144 323.443 63.9305C323.569 63.1563 323.985 62.4594 324.608 61.9832C324.919 61.7532 325.273 61.5873 325.649 61.4952C326.025 61.403 326.416 61.3865 326.798 61.4466C327.181 61.5029 327.548 61.634 327.88 61.8324C328.211 62.0309 328.501 62.2928 328.731 62.6032C328.962 62.9136 329.129 63.2664 329.223 63.6415C329.317 64.0166 329.337 64.4065 329.28 64.7891C329.171 65.4825 328.817 66.1138 328.283 66.5693C327.75 67.0247 327.071 67.2743 326.369 67.273ZM326.369 62.8572C326.034 62.8767 325.715 63.0058 325.46 63.2246C325.206 63.4434 325.03 63.7399 324.96 64.0685C324.915 64.4411 325.007 64.8176 325.221 65.1264C325.452 65.4241 325.784 65.6261 326.155 65.6937C326.53 65.7443 326.91 65.6451 327.212 65.4177C327.363 65.3116 327.49 65.1749 327.585 65.0164C327.68 64.858 327.741 64.6812 327.764 64.4978C327.795 64.313 327.788 64.1237 327.743 63.9417C327.699 63.7596 327.617 63.5888 327.503 63.4398C327.392 63.2884 327.253 63.1603 327.092 63.0629C326.932 62.9656 326.754 62.9009 326.569 62.8725L326.369 62.8572Z" fill="#ECF1F7"/>
<path d="M372.051 74.0194C371.904 74.0342 371.755 74.0342 371.607 74.0194L335.76 68.7143C335.375 68.6577 335.005 68.5257 334.671 68.3257C334.337 68.1258 334.046 67.8618 333.815 67.549C333.358 66.9151 333.161 66.1309 333.263 65.3564C333.319 64.9718 333.451 64.602 333.65 64.2683C333.849 63.9345 334.112 63.6432 334.423 63.4112C334.735 63.1791 335.089 63.0107 335.466 62.9156C335.842 62.8206 336.234 62.8007 336.618 62.8572L372.48 68.1623C372.863 68.22 373.23 68.3526 373.561 68.5525C373.893 68.7525 374.181 69.0159 374.411 69.3276C374.645 69.637 374.815 69.9907 374.91 70.3675C375.005 70.7443 375.023 71.1364 374.962 71.5202C374.917 71.8975 374.796 72.2618 374.606 72.5912C374.417 72.9205 374.162 73.2081 373.859 73.4368C373.34 73.8299 372.702 74.0353 372.051 74.0194V74.0194ZM336.189 64.3905C335.848 64.3902 335.519 64.5123 335.26 64.7346C335.001 64.9568 334.831 65.2645 334.78 65.6017C334.739 65.9763 334.837 66.3529 335.055 66.6597C335.164 66.8085 335.301 66.934 335.459 67.0288C335.617 67.1236 335.792 67.1858 335.975 67.2117L371.837 72.5168C372.198 72.5561 372.559 72.4532 372.845 72.2299C373.131 72.0066 373.319 71.6805 373.369 71.3208C373.4 71.1385 373.393 70.9516 373.348 70.7721C373.303 70.5926 373.222 70.4244 373.108 70.2782C372.998 70.1268 372.858 69.9987 372.698 69.9013C372.537 69.804 372.359 69.7393 372.174 69.7109L336.388 64.3905H336.189Z" fill="#ECF1F7"/>
<path d="M379.313 270.615L281.269 256.095C280.504 255.985 279.726 256.183 279.106 256.646C278.486 257.109 278.074 257.798 277.96 258.564L274.192 284.016C274.135 284.397 274.154 284.785 274.248 285.158C274.341 285.531 274.507 285.882 274.736 286.191C274.965 286.5 275.253 286.761 275.583 286.959C275.913 287.156 276.278 287.287 276.658 287.343L360.485 299.747L369.11 311.676L370.642 301.265L374.686 301.863C375.454 301.973 376.233 301.776 376.856 301.313C377.478 300.851 377.893 300.162 378.011 299.395L381.764 273.927C381.822 273.548 381.805 273.162 381.714 272.789C381.622 272.417 381.457 272.067 381.229 271.759C381.001 271.451 380.714 271.191 380.385 270.995C380.056 270.799 379.692 270.67 379.313 270.615Z" fill="#B5D1E4"/>
<path d="M394.907 165.126L296.864 150.606C296.097 150.496 295.317 150.694 294.695 151.156C294.072 151.618 293.657 152.308 293.54 153.075L289.787 178.527C289.728 178.907 289.745 179.294 289.837 179.667C289.928 180.041 290.093 180.392 290.32 180.701C290.548 181.01 290.835 181.271 291.164 181.469C291.493 181.667 291.858 181.798 292.238 181.854L376.065 194.258L384.705 206.187L386.237 195.761L390.281 196.374C391.047 196.484 391.824 196.286 392.444 195.823C393.064 195.361 393.476 194.671 393.59 193.906L397.359 168.438C397.468 167.674 397.273 166.898 396.814 166.278C396.355 165.657 395.67 165.244 394.907 165.126V165.126Z" fill="#B5D1E4"/>
<path d="M270.806 197.923L368.849 212.443C369.614 212.557 370.303 212.969 370.765 213.59C371.227 214.21 371.425 214.989 371.316 215.755L367.547 241.222C367.434 241.988 367.022 242.678 366.402 243.14C365.782 243.603 365.004 243.801 364.238 243.691L280.411 231.272L268.692 240.18L270.224 229.769L266.164 229.171C265.784 229.115 265.42 228.984 265.09 228.786C264.761 228.588 264.475 228.327 264.247 228.018C264.019 227.709 263.855 227.357 263.763 226.984C263.671 226.611 263.654 226.224 263.713 225.844L267.466 200.392C267.584 199.622 268.001 198.93 268.627 198.467C269.253 198.004 270.036 197.809 270.806 197.923Z" fill="#0095F9"/>
<path d="M241.704 305.305L238.177 329.179L378.736 349.978L382.262 326.104L241.704 305.305Z" fill="white"/>
<path d="M262.457 320.446C262.209 322.12 261.47 323.683 260.334 324.936C259.198 326.189 257.717 327.078 256.077 327.488C254.437 327.899 252.712 327.814 251.12 327.243C249.529 326.673 248.142 325.643 247.135 324.284C246.128 322.924 245.547 321.297 245.464 319.607C245.381 317.917 245.801 316.24 246.671 314.789C247.54 313.338 248.82 312.177 250.348 311.454C251.877 310.731 253.585 310.477 255.257 310.726C256.368 310.891 257.435 311.273 258.398 311.851C259.361 312.429 260.2 313.191 260.869 314.093C261.538 314.996 262.022 316.022 262.295 317.112C262.567 318.202 262.622 319.335 262.457 320.446Z" fill="#C5E3FF"/>
<path opacity="0.33" d="M366.199 343.553C365.822 343.583 365.443 343.583 365.066 343.553L273.993 330.06C273 329.922 272.046 329.586 271.186 329.072C270.325 328.559 269.577 327.878 268.983 327.07C268.103 325.855 267.598 324.408 267.532 322.908C267.465 321.408 267.841 319.922 268.611 318.634C269.381 317.346 270.512 316.312 271.863 315.661C273.215 315.01 274.728 314.771 276.214 314.973L367.302 328.466C369.124 328.84 370.748 329.864 371.871 331.349C372.994 332.833 373.538 334.676 373.403 336.532C373.268 338.389 372.463 340.133 371.137 341.439C369.811 342.745 368.056 343.524 366.199 343.63V343.553ZM365.295 342.02C366.128 342.235 366.996 342.272 367.843 342.129C368.691 341.986 369.499 341.667 370.215 341.191C370.931 340.715 371.539 340.094 371.999 339.368C372.46 338.641 372.763 337.826 372.888 336.975C373.013 336.124 372.958 335.256 372.727 334.428C372.495 333.6 372.092 332.829 371.544 332.167C370.995 331.505 370.314 330.966 369.543 330.584C368.773 330.203 367.931 329.988 367.072 329.953L275.984 316.475C274.799 316.319 273.594 316.514 272.517 317.035C271.441 317.556 270.541 318.38 269.927 319.407C269.313 320.434 269.012 321.618 269.063 322.813C269.113 324.009 269.511 325.163 270.209 326.135C270.683 326.78 271.281 327.323 271.967 327.734C272.654 328.144 273.415 328.414 274.207 328.527L365.295 342.02Z" fill="#9CB9DA"/>
<path d="M285.268 83.7403H284.839C284.267 83.63 283.739 83.3592 283.316 82.9594C282.892 82.5596 282.592 82.0475 282.449 81.4829C282.306 80.9183 282.326 80.3246 282.508 79.7713C282.69 79.218 283.025 78.728 283.475 78.3585C284.118 77.8849 284.921 77.6814 285.712 77.7912C286.502 77.9233 287.209 78.36 287.682 79.0077C288.154 79.6555 288.355 80.4627 288.239 81.2564V81.2564C288.106 81.9496 287.737 82.5752 287.195 83.0278C286.654 83.4803 285.973 83.732 285.268 83.7403V83.7403ZM285.268 79.2632C285.004 79.2833 284.751 79.3712 284.531 79.5182C284.312 79.6653 284.135 79.8667 284.016 80.1027C283.897 80.3387 283.841 80.6014 283.854 80.8654C283.867 81.1293 283.947 81.3855 284.088 81.6091C284.274 81.8186 284.514 81.9731 284.781 82.0559C285.048 82.1386 285.333 82.1465 285.605 82.0785C285.877 82.0105 286.124 81.8694 286.321 81.6704C286.519 81.4714 286.657 81.2222 286.723 80.9497C286.772 80.565 286.673 80.176 286.447 79.8611C286.334 79.7034 286.191 79.5704 286.025 79.4702C285.859 79.37 285.674 79.3048 285.482 79.2785L285.268 79.2632Z" fill="white"/>
<path d="M293.571 84.9669H293.126C292.421 84.8721 291.771 84.5347 291.288 84.0127C290.804 83.4907 290.517 82.8165 290.476 82.1058C290.435 81.3951 290.642 80.6922 291.061 80.1175C291.481 79.5429 292.088 79.1324 292.777 78.9564C293.466 78.7803 294.195 78.8498 294.839 79.1528C295.482 79.4559 296.001 79.9736 296.305 80.6172C296.608 81.2608 296.679 81.9902 296.505 82.6803C296.33 83.3705 295.921 83.9783 295.348 84.3996C294.833 84.7777 294.209 84.9769 293.571 84.9669ZM293.571 80.4898C293.224 80.505 292.892 80.6377 292.631 80.8661C292.369 81.0946 292.193 81.4052 292.131 81.747C292.099 81.9367 292.106 82.1307 292.151 82.3177C292.196 82.5046 292.277 82.6808 292.391 82.8357C292.627 83.1456 292.972 83.3539 293.356 83.4183C293.547 83.4475 293.741 83.4381 293.928 83.3907C294.115 83.3433 294.29 83.2588 294.444 83.1423C294.754 82.9061 294.962 82.5607 295.026 82.1763C295.075 81.7916 294.976 81.4026 294.75 81.0877C294.637 80.93 294.494 80.797 294.328 80.6968C294.162 80.5966 293.977 80.5314 293.785 80.5051L293.571 80.4898Z" fill="white"/>
<path d="M301.69 86.1629C301.547 86.1781 301.404 86.1781 301.261 86.1629C300.469 86.1072 299.729 85.746 299.198 85.1553C298.667 84.5647 298.386 83.7907 298.414 82.9964C298.441 82.2022 298.776 81.4498 299.347 80.8978C299.918 80.3458 300.681 80.0373 301.475 80.0373C302.269 80.0373 303.033 80.3458 303.604 80.8978C304.175 81.4498 304.51 82.2022 304.537 82.9964C304.565 83.7907 304.284 84.5647 303.753 85.1553C303.222 85.746 302.482 86.1072 301.69 86.1629ZM301.69 81.701C301.375 81.6988 301.068 81.8012 300.817 81.9924C300.661 82.1061 300.531 82.2505 300.433 82.4166C300.336 82.5827 300.274 82.7671 300.25 82.9583C300.197 83.3411 300.29 83.7299 300.51 84.0469C300.649 84.274 300.843 84.4612 301.076 84.5901C301.308 84.7191 301.57 84.7853 301.836 84.7823C302.101 84.7793 302.362 84.7072 302.591 84.5731C302.821 84.439 303.011 84.2475 303.144 84.0173C303.277 83.7872 303.349 83.5264 303.35 83.2605C303.352 82.9946 303.285 82.7327 303.156 82.5006C303.026 82.2686 302.838 82.0742 302.611 81.9367C302.383 81.7992 302.124 81.7233 301.858 81.7164L301.69 81.701Z" fill="white"/>
<path d="M361.864 280.812H361.757L292.345 270.539C292.245 270.525 292.148 270.491 292.06 270.439C291.973 270.388 291.896 270.319 291.835 270.238C291.774 270.157 291.729 270.065 291.704 269.966C291.678 269.868 291.672 269.765 291.686 269.665C291.701 269.564 291.734 269.467 291.786 269.379C291.837 269.292 291.906 269.215 291.987 269.154C292.068 269.093 292.16 269.048 292.258 269.023C292.357 268.997 292.459 268.991 292.56 269.005L361.987 279.278C362.19 279.295 362.378 279.391 362.51 279.546C362.642 279.702 362.707 279.903 362.691 280.106C362.675 280.31 362.579 280.498 362.424 280.63C362.268 280.763 362.067 280.828 361.864 280.812V280.812Z" fill="white"/>
<path d="M310.82 281.946H310.697L289.97 278.88C289.772 278.849 289.594 278.742 289.474 278.582C289.353 278.421 289.301 278.22 289.327 278.021C289.34 277.92 289.373 277.823 289.425 277.736C289.476 277.649 289.545 277.572 289.626 277.512C289.708 277.452 289.801 277.409 289.899 277.386C289.998 277.363 290.1 277.36 290.2 277.377L310.927 280.444C311.13 280.458 311.319 280.552 311.453 280.706C311.587 280.86 311.654 281.061 311.639 281.264C311.625 281.467 311.531 281.656 311.377 281.79C311.223 281.924 311.023 281.991 310.82 281.977V281.946Z" fill="white"/>
<path d="M352.673 220.431H352.565L283.138 210.158C282.935 210.128 282.753 210.018 282.63 209.852C282.508 209.687 282.457 209.48 282.487 209.277C282.518 209.073 282.628 208.891 282.793 208.768C282.958 208.646 283.165 208.595 283.368 208.625L352.78 218.913C352.88 218.924 352.976 218.956 353.064 219.006C353.151 219.056 353.227 219.123 353.287 219.203C353.348 219.284 353.391 219.376 353.414 219.474C353.437 219.571 353.441 219.673 353.423 219.772C353.398 219.954 353.308 220.12 353.17 220.241C353.032 220.362 352.856 220.429 352.673 220.431Z" fill="white"/>
<path d="M342.271 229.876H342.164L282.25 220.569C282.149 220.554 282.053 220.519 281.966 220.467C281.878 220.414 281.802 220.345 281.742 220.263C281.682 220.182 281.638 220.089 281.613 219.99C281.589 219.891 281.584 219.788 281.599 219.688C281.614 219.587 281.649 219.49 281.701 219.403C281.754 219.316 281.823 219.24 281.904 219.179C281.986 219.119 282.079 219.075 282.178 219.05C282.277 219.026 282.379 219.021 282.48 219.036L342.393 228.328C342.593 228.362 342.771 228.472 342.891 228.635C343.011 228.798 343.064 229.001 343.037 229.202C343.011 229.387 342.92 229.558 342.779 229.681C342.639 229.805 342.458 229.874 342.271 229.876Z" fill="white"/>
<path d="M283.476 102.216L381.519 116.736C382.284 116.85 382.973 117.262 383.435 117.883C383.897 118.503 384.095 119.282 383.985 120.048L380.14 145.516C380.027 146.281 379.615 146.971 378.995 147.433C378.375 147.896 377.597 148.094 376.831 147.984L293.004 135.565L281.285 144.473L282.817 134.062L278.757 133.464C278.377 133.408 278.013 133.277 277.683 133.079C277.354 132.881 277.068 132.62 276.84 132.311C276.612 132.002 276.448 131.651 276.356 131.277C276.264 130.904 276.247 130.517 276.306 130.137L280.059 104.685C280.117 104.296 280.252 103.923 280.456 103.587C280.66 103.251 280.929 102.959 281.247 102.729C281.566 102.499 281.927 102.335 282.31 102.247C282.692 102.159 283.089 102.148 283.476 102.216V102.216Z" fill="#0095F9"/>
<path d="M365.985 126.411H365.878L296.451 116.138C296.251 116.104 296.073 115.994 295.953 115.831C295.833 115.668 295.781 115.465 295.807 115.264C295.82 115.164 295.854 115.067 295.905 114.979C295.956 114.892 296.025 114.816 296.107 114.756C296.188 114.696 296.281 114.653 296.38 114.629C296.478 114.606 296.581 114.603 296.681 114.62L366.092 124.893C366.193 124.906 366.29 124.94 366.377 124.991C366.464 125.042 366.54 125.111 366.6 125.193C366.66 125.274 366.703 125.367 366.727 125.466C366.75 125.565 366.753 125.667 366.736 125.767C366.707 125.946 366.615 126.109 366.478 126.227C366.341 126.345 366.166 126.41 365.985 126.411V126.411Z" fill="white"/>
<path d="M355.583 133.955H355.476L295.562 124.648C295.462 124.633 295.365 124.598 295.278 124.545C295.191 124.493 295.115 124.424 295.054 124.342C294.932 124.177 294.881 123.97 294.911 123.766C294.942 123.563 295.052 123.38 295.217 123.258C295.382 123.136 295.589 123.084 295.792 123.115L355.706 132.406C355.905 132.44 356.084 132.55 356.204 132.713C356.324 132.876 356.376 133.079 356.349 133.28C356.323 133.466 356.232 133.636 356.091 133.76C355.951 133.884 355.77 133.953 355.583 133.955Z" fill="white"/>
<path d="M377.52 174.418H377.413L307.986 164.13C307.886 164.114 307.789 164.08 307.702 164.027C307.615 163.975 307.539 163.906 307.478 163.824C307.418 163.742 307.374 163.649 307.35 163.55C307.325 163.451 307.32 163.349 307.335 163.248C307.35 163.147 307.385 163.051 307.437 162.963C307.49 162.876 307.559 162.8 307.641 162.74C307.723 162.679 307.816 162.635 307.914 162.611C308.013 162.586 308.115 162.581 308.216 162.596L377.628 172.869C377.831 172.883 378.02 172.978 378.154 173.132C378.287 173.286 378.354 173.486 378.34 173.689C378.326 173.893 378.231 174.082 378.078 174.216C377.924 174.35 377.724 174.417 377.52 174.402V174.418Z" fill="white"/>
<path d="M326.461 176.718H326.369L305.627 173.651C305.527 173.636 305.431 173.602 305.345 173.55C305.259 173.498 305.184 173.429 305.124 173.348C305.064 173.267 305.021 173.174 304.997 173.077C304.973 172.979 304.968 172.877 304.983 172.777C305.017 172.578 305.127 172.399 305.29 172.279C305.453 172.159 305.656 172.107 305.857 172.133L326.599 175.2C326.797 175.23 326.975 175.337 327.096 175.498C327.216 175.658 327.269 175.86 327.242 176.058C327.213 176.244 327.118 176.413 326.974 176.534C326.831 176.655 326.649 176.72 326.461 176.718Z" fill="white"/>
<path d="M236.369 358.426L79.1011 376.15C78.3801 376.24 77.6485 376.185 76.9487 375.99C76.249 375.794 75.595 375.461 75.0249 375.01C74.4548 374.559 73.9798 374 73.6277 373.364C73.2755 372.728 73.0531 372.028 72.9734 371.305L61.6678 270.462C61.6635 270.424 61.6669 270.385 61.6778 270.348C61.6886 270.311 61.7066 270.276 61.7309 270.246C61.7551 270.217 61.785 270.192 61.8189 270.173C61.8527 270.155 61.8899 270.144 61.9282 270.14L229.506 251.25C229.543 251.243 229.581 251.245 229.618 251.254C229.655 251.263 229.69 251.279 229.72 251.302C229.75 251.325 229.775 251.354 229.794 251.388C229.812 251.421 229.824 251.457 229.827 251.495L241.179 352.369C241.262 353.083 241.204 353.807 241.007 354.498C240.81 355.189 240.478 355.835 240.031 356.398C239.584 356.96 239.031 357.429 238.402 357.777C237.774 358.125 237.083 358.346 236.369 358.426V358.426Z" fill="#0099FF"/>
<path opacity="0.29" d="M229 358.426L86.7914 376.15C83.7275 376.503 130.865 316.046 130.528 313.025L61.6678 270.462C61.6635 270.424 61.6669 270.385 61.6778 270.348C61.6886 270.311 61.7066 270.276 61.7309 270.246C61.7551 270.217 61.785 270.192 61.8189 270.173C61.8527 270.155 61.8899 270.144 61.9282 270.14L229.506 251.25C229.543 251.243 229.581 251.245 229.618 251.254C229.655 251.263 229.69 251.279 229.72 251.302C229.75 251.325 229.775 251.354 229.794 251.388C229.812 251.421 229.824 251.457 229.827 251.495L172.503 308.226C172.84 311.247 232.003 358.088 229 358.426Z" fill="#243762"/>
<path d="M61.9283 270.14L131.233 201.541C133.239 199.551 135.857 198.295 138.663 197.975C141.47 197.655 144.303 198.29 146.705 199.778L229.077 250.974C229.111 250.985 229.141 251.006 229.162 251.035C229.184 251.064 229.195 251.099 229.195 251.135C229.195 251.171 229.184 251.206 229.162 251.235C229.141 251.264 229.111 251.285 229.077 251.296L61.6372 270.171" fill="#0099FF"/>
<path d="M70.384 220.447L179.917 208.104C187.102 207.291 193.49 211.692 194.194 217.932L201.226 280.459L170.771 308.487L130.528 313.087L90.6974 288.202L83.8803 227.607L70.384 220.447Z" fill="white"/>
<path opacity="0.29" d="M138.892 296.19L86.8066 375L229.015 358.962L162.101 293.584C160.453 292.123 158.517 291.025 156.418 290.361C154.32 289.696 152.105 289.48 149.918 289.725C147.73 289.971 145.619 290.673 143.72 291.787C141.821 292.901 140.176 294.401 138.892 296.19V296.19Z" fill="#243762"/>
<path d="M138.892 302.446L86.8066 375L229.015 358.962L162.101 299.839C160.452 298.381 158.516 297.285 156.417 296.622C154.319 295.959 152.105 295.743 149.919 295.989C147.732 296.234 145.621 296.936 143.722 298.048C141.823 299.16 140.177 300.658 138.892 302.446V302.446Z" fill="#0099FF"/>
<path opacity="0.35" d="M143.932 318.515L105.634 371.781L210.066 360.005L160.921 316.583C159.71 315.522 158.291 314.726 156.755 314.246C155.219 313.766 153.599 313.612 152 313.794C150.401 313.975 148.858 314.489 147.469 315.302C146.079 316.115 144.875 317.209 143.932 318.515V318.515Z" fill="#ECF1F7"/>
<path d="M86.975 255.466L67.8566 257.582L64.7927 230.275C64.5257 227.856 65.2268 225.43 66.7428 223.528C68.2587 221.626 70.4659 220.402 72.8813 220.125L73.7545 220.017C76.1733 219.75 78.5993 220.454 80.5004 221.975C82.4015 223.495 83.6226 225.708 83.8959 228.128L86.975 255.466Z" fill="#D5DEE8"/>
<path d="M99.9506 241.253C99.765 241.251 99.5867 241.181 99.4486 241.057C99.3105 240.933 99.2222 240.763 99.1999 240.579C99.1871 240.479 99.1946 240.377 99.2218 240.28C99.249 240.183 99.2955 240.093 99.3583 240.014C99.4212 239.935 99.4993 239.87 99.5879 239.822C99.6764 239.774 99.7737 239.745 99.874 239.735L179.228 230.781C179.431 230.757 179.635 230.814 179.796 230.94C179.957 231.067 180.061 231.252 180.086 231.456C180.11 231.659 180.053 231.864 179.926 232.025C179.8 232.186 179.615 232.29 179.412 232.314L100.042 241.269L99.9506 241.253Z" fill="#6D7584"/>
<path d="M102.999 256.601C102.796 256.613 102.596 256.544 102.444 256.409C102.292 256.274 102.199 256.084 102.187 255.881C102.175 255.677 102.244 255.477 102.379 255.325C102.514 255.173 102.704 255.08 102.907 255.068L182.276 246.114C182.479 246.091 182.683 246.151 182.843 246.278C183.002 246.406 183.104 246.593 183.127 246.796C183.149 246.999 183.09 247.203 182.962 247.363C182.834 247.522 182.648 247.624 182.445 247.647L103.076 256.586L102.999 256.601Z" fill="#6D7584"/>
<path d="M104.715 272.915C104.512 272.915 104.317 272.834 104.173 272.691C104.03 272.547 103.949 272.352 103.949 272.149C103.949 271.945 104.03 271.75 104.173 271.606C104.317 271.463 104.512 271.382 104.715 271.382L138.999 267.503C139.202 267.481 139.405 267.539 139.566 267.665C139.726 267.791 139.831 267.975 139.857 268.177C139.879 268.38 139.821 268.584 139.695 268.744C139.569 268.904 139.385 269.009 139.183 269.036L104.807 272.915H104.715Z" fill="#6D7584"/>
</svg>
