<svg width="452" height="432" viewBox="0 0 452 432" fill="none" xmlns="http://www.w3.org/2000/svg">
<path d="M15.9962 120C15.9962 53.7258 69.722 0 135.996 0H397.996C409.042 0 417.996 8.95431 417.996 20V251C417.996 317.274 364.27 371 297.996 371H35.9961C24.9505 371 15.9962 362.046 15.9962 351V120Z" fill="#161E27"/>
<rect x="321.999" y="51" width="116" height="19" rx="9.5" fill="#161E27"/>
<rect x="335.999" y="89" width="116" height="19" rx="9.5" fill="#161E27"/>
<rect x="402.999" y="70" width="30" height="19" rx="9.5" fill="#181818"/>
<path d="M362.355 359.153C362.355 381.638 375.723 389.489 392.21 389.489C392.594 389.489 392.976 389.485 393.356 389.475C394.119 389.458 394.877 389.425 395.624 389.371C410.506 388.319 422.067 380.063 422.067 359.153C422.067 337.515 394.42 310.21 392.335 308.183L392.331 308.181C392.252 308.102 392.21 308.063 392.21 308.063C392.21 308.063 362.355 336.667 362.355 359.153Z" fill="#3F3D56"/>
<path d="M393.3 386.049L382.379 370.792L393.327 387.724L393.356 389.475C394.119 389.458 394.877 389.425 395.624 389.371L394.447 366.876L394.456 366.702L394.435 366.669L394.325 364.544L405.299 347.569L394.292 362.95L394.265 363.401L393.375 346.404L402.77 328.865L393.26 343.419L392.335 308.183L392.331 308.063V308.181L392.484 335.967L383.132 324.951L392.524 338.36L392.771 353.578L384.037 338.974L392.808 355.819L392.945 364.278L380.267 343.95L392.993 367.231L393.3 386.049Z" fill="#F2F2F2"/>
<g opacity="0.7">
<path opacity="0.7" d="M37.0065 201.554V196.138H64.0819V221.183C64.0819 222.583 63.5256 223.926 62.5355 224.916C61.5454 225.907 60.2024 226.463 58.8022 226.463H42.2862C40.8859 226.463 39.543 225.907 38.5529 224.916C37.5627 223.926 37.0065 222.583 37.0065 221.183V215.633C35.1395 215.633 33.3489 214.891 32.0287 213.571C30.7085 212.251 29.9669 210.46 29.9669 208.593C29.9669 206.726 30.7085 204.936 32.0287 203.615C33.3489 202.295 35.1395 201.554 37.0065 201.554V201.554ZM37.0065 212.925V204.261C35.8575 204.261 34.7557 204.717 33.9433 205.53C33.1309 206.342 32.6744 207.444 32.6744 208.593C32.6744 209.742 33.1309 210.844 33.9433 211.656C34.7557 212.469 35.8575 212.925 37.0065 212.925V212.925Z" fill="url(#paint0_linear)"/>
</g>
<path d="M37.8776 202.401C39.1489 202.401 40.3915 202.778 41.4485 203.484C42.5055 204.191 43.3293 205.194 43.8158 206.369C44.3023 207.543 44.4296 208.836 44.1815 210.083C43.9335 211.329 43.3214 212.475 42.4225 213.373C41.5236 214.272 40.3783 214.885 39.1315 215.133C37.8847 215.381 36.5924 215.253 35.4179 214.767C34.2435 214.28 33.2396 213.456 32.5334 212.399C31.8271 211.342 31.4502 210.1 31.4502 208.829C31.4502 207.124 32.1273 205.489 33.3327 204.284C34.5381 203.078 36.173 202.401 37.8776 202.401V202.401ZM37.8776 212.784C38.6599 212.784 39.4246 212.552 40.0751 212.117C40.7256 211.683 41.2325 211.065 41.5319 210.342C41.8313 209.619 41.9096 208.824 41.757 208.057C41.6044 207.29 41.2276 206.585 40.6745 206.032C40.1213 205.479 39.4165 205.102 38.6493 204.949C37.882 204.797 37.0867 204.875 36.364 205.174C35.6412 205.474 35.0235 205.981 34.5888 206.631C34.1542 207.282 33.9222 208.046 33.9222 208.829C33.9222 209.878 34.339 210.884 35.0807 211.625C35.8225 212.367 36.8286 212.784 37.8776 212.784Z" fill="#0794F3"/>
<path opacity="0.1" d="M37.8776 202.401C39.1489 202.401 40.3915 202.778 41.4485 203.484C42.5055 204.191 43.3293 205.194 43.8158 206.369C44.3023 207.543 44.4296 208.836 44.1815 210.083C43.9335 211.329 43.3214 212.475 42.4225 213.373C41.5236 214.272 40.3783 214.885 39.1315 215.133C37.8847 215.381 36.5924 215.253 35.4179 214.767C34.2435 214.28 33.2396 213.456 32.5334 212.399C31.8271 211.342 31.4502 210.1 31.4502 208.829C31.4502 207.124 32.1273 205.489 33.3327 204.284C34.5381 203.078 36.173 202.401 37.8776 202.401V202.401ZM37.8776 212.784C38.6599 212.784 39.4246 212.552 40.0751 212.117C40.7256 211.683 41.2325 211.065 41.5319 210.342C41.8313 209.619 41.9096 208.824 41.757 208.057C41.6044 207.29 41.2276 206.585 40.6745 206.032C40.1213 205.479 39.4165 205.102 38.6493 204.949C37.882 204.797 37.0867 204.875 36.364 205.174C35.6412 205.474 35.0235 205.981 34.5888 206.631C34.1542 207.282 33.9222 208.046 33.9222 208.829C33.9222 209.878 34.339 210.884 35.0807 211.625C35.8225 212.367 36.8286 212.784 37.8776 212.784Z" fill="black"/>
<path d="M62.5986 197.457H37.8776V220.298C37.8776 221.584 38.3881 222.816 39.2969 223.725C40.2057 224.634 41.4383 225.144 42.7235 225.144H57.7527C59.0379 225.144 60.2705 224.634 61.1793 223.725C62.088 222.816 62.5986 221.584 62.5986 220.298V197.457Z" fill="#0794F3"/>
<path opacity="0.1" d="M42.3274 197.457V220.324C42.3274 221.602 42.8352 222.828 43.7393 223.733C44.6433 224.637 45.8694 225.144 47.1479 225.144H44.6758C43.3973 225.144 42.1712 224.637 41.2672 223.733C40.3631 222.828 39.8553 221.602 39.8553 220.324V197.457H42.3274Z" fill="black"/>
<path d="M57.7202 179.027C57.9317 179.033 58.1391 179.087 58.3278 179.182C58.5164 179.278 58.6817 179.414 58.8119 179.581C59.1362 180.169 58.5486 180.832 58.0124 181.236C57.0217 181.982 55.9775 182.715 55.3041 183.756C54.6307 184.798 54.4192 186.252 55.1553 187.25C56.1165 188.553 58.4096 188.834 58.6315 190.438C58.774 191.468 57.8837 192.347 56.9815 192.863C54.7547 194.139 51.8841 194.479 50.2712 196.475C49.6039 195.103 48.1115 194.31 46.6239 193.971C45.1363 193.633 43.5906 193.658 42.0823 193.428C41.836 193.423 41.5942 193.361 41.3765 193.245C41.1588 193.13 40.9713 192.965 40.8293 192.763C40.4077 191.908 41.6093 190.882 41.1946 190.023C40.8789 189.369 39.9516 189.42 39.2745 189.158C38.1718 188.731 37.7172 187.312 38.0301 186.172C38.3431 185.032 39.227 184.141 40.1566 183.411C42.6617 181.443 45.6739 180.285 48.7206 179.452C50.1376 179.065 51.801 178.458 53.2728 178.399C54.6936 178.342 56.314 178.786 57.7202 179.027Z" fill="#EEEEEE"/>
<path d="M231.229 230.983L282.919 392.017" stroke="#E0E0E0" stroke-width="8" stroke-miterlimit="10"/>
<g opacity="0.7">
<path opacity="0.7" d="M191.18 410.153C197.538 410.522 203.203 415.848 203.203 415.848L205.942 409.054L206.165 409.127C204.827 403.27 177.603 282.526 204.856 272.117C225.797 264.119 248.009 254.22 265.412 254.592V226.069H241.014V225.052H221.699C217.996 222.407 223.376 220.589 229.389 219.452C229.144 219.172 228.928 218.867 228.745 218.543L197.809 163.04C197.809 163.04 190.693 151.35 195.267 145.758C199.842 140.167 206.45 159.991 206.45 159.991L231.864 196.588C231.864 196.588 257.515 169.853 273.832 156.557C275.643 154.763 277.686 153.219 279.907 151.966C282.885 149.951 285.14 148.907 286.252 149.317C286.263 149.321 286.272 149.328 286.283 149.332C288.756 148.648 291.31 148.3 293.876 148.3H295.909V144.129C291.355 142.625 287.188 140.135 283.707 136.836C280.225 133.537 277.514 129.51 275.767 125.043C272.899 120.294 271.148 114.956 270.645 109.431C270.143 103.906 270.901 98.3393 272.864 93.1505C272.561 93.1147 272.269 93.0136 272.008 92.8542C271.088 92.2616 270.997 90.9653 271.086 89.8741C271.419 86.2118 272.64 82.686 274.643 79.6015C276.645 76.5169 279.369 73.9666 282.578 72.1709C285.153 70.7626 288.103 69.7924 290.002 67.5543C291.634 65.6312 292.319 62.9415 294.294 61.3723C296.64 59.5082 300.028 59.8287 302.907 60.6605C306.11 61.5873 309.145 63.0194 311.897 64.9028C315.011 67.0354 317.821 69.7751 321.405 70.9555C323.952 71.7943 326.715 71.7775 329.278 72.5655C331.245 73.1888 333.039 74.2638 334.516 75.7046C335.993 77.1453 337.113 78.9118 337.785 80.8627C338.438 82.9586 338.685 85.1596 338.513 87.348C340.072 89.9535 341.298 92.7439 342.164 95.6541C342.356 95.7577 342.549 95.859 342.739 95.9658L342.182 95.7152C344.126 102.278 344.19 109.254 342.368 115.851C340.546 122.448 336.909 128.402 331.872 133.036C327.892 138.217 322.446 142.083 316.241 144.129V149.175C320.668 150.13 324.891 151.859 328.716 154.284L328.721 154.277C328.721 154.277 329.046 154.478 329.601 154.852C329.657 154.889 329.712 154.926 329.768 154.964C333.529 157.517 346.133 166.844 345.707 176.924C345.724 177.311 345.721 177.7 345.7 178.09C346.388 181.003 346.737 183.985 346.738 186.978V260.124C346.748 268.207 344.032 276.056 339.029 282.404C349.636 284.781 356.396 288.377 356.396 292.401C356.343 292.738 356.343 293.081 356.396 293.417C356.396 300.576 335.004 306.379 308.617 306.379C305.426 306.379 302.31 306.293 299.294 306.132L269.478 330.269L317.258 407.021C317.258 407.021 333.015 419.22 320.816 423.286C308.617 427.353 283.71 430.402 283.71 430.402C283.71 430.402 279.644 423.286 285.235 420.236C290.826 417.187 298.451 418.712 298.451 418.712L297.434 412.612C297.434 412.612 214.582 341.451 231.864 317.053C235.171 312.385 238.477 307.569 241.812 302.828L228.769 304.017L225.801 415.725L225.43 415.604C226.175 417.799 231.445 434.362 219.764 431.559C207.26 428.558 184.509 417.975 184.509 417.975C184.509 417.975 184.822 409.784 191.18 410.153ZM241.014 217.936L265.412 210.853V189.98L238.894 218.13C240.198 217.999 241.014 217.936 241.014 217.936Z" fill="url(#paint1_linear)"/>
</g>
<path d="M265.524 191.221L238.214 220.211C237.639 220.822 236.928 221.288 236.139 221.573C235.35 221.857 234.505 221.951 233.673 221.848C232.84 221.744 232.044 221.446 231.349 220.978C230.653 220.509 230.078 219.883 229.67 219.151L199.42 164.879L207.869 161.897L232.72 197.682C232.72 197.682 279.374 149.056 285.901 151.46C292.429 153.864 265.524 191.221 265.524 191.221Z" fill="#0794F3"/>
<path d="M317.711 291.619L357.969 395.993" stroke="#BDBDBD" stroke-width="5" stroke-miterlimit="10"/>
<path d="M297.83 291.619L257.571 395.993" stroke="#BDBDBD" stroke-width="5" stroke-miterlimit="10"/>
<path d="M307.77 305.038C281.968 305.038 261.05 299.364 261.05 292.364C261.05 285.365 281.968 279.69 307.77 279.69C333.573 279.69 354.49 285.365 354.49 292.364C354.49 299.364 333.573 305.038 307.77 305.038Z" fill="#B84733"/>
<path d="M307.77 304.044C281.968 304.044 261.05 298.37 261.05 291.37C261.05 284.371 281.968 278.696 307.77 278.696C333.573 278.696 354.49 284.371 354.49 291.37C354.49 298.37 333.573 304.044 307.77 304.044Z" fill="#F55F44"/>
<path d="M327.429 314.55L283.349 328.134" stroke="#BDBDBD" stroke-width="5" stroke-miterlimit="10"/>
<path d="M288.111 314.55L332.192 328.134" stroke="#BDBDBD" stroke-width="5" stroke-miterlimit="10"/>
<path d="M307.226 150.465H293.357C285.975 150.465 278.895 153.398 273.676 158.618C268.456 163.837 265.524 170.917 265.524 178.299V251.857H345.047V188.286C345.047 178.255 341.062 168.636 333.969 161.543C326.877 154.45 317.257 150.465 307.226 150.465V150.465Z" fill="#0794F3"/>
<path d="M345.047 251.857H265.524V295.098H309.758C319.117 295.098 328.093 291.38 334.711 284.762C341.329 278.145 345.047 269.169 345.047 259.81V251.857V251.857Z" fill="#39447A"/>
<path opacity="0.05" d="M343.973 180.306L295.345 226.51H241.667V219.551L287.889 206.132L327.429 157.304C327.429 157.304 345.384 168.397 343.973 180.306Z" fill="black"/>
<path d="M343.973 179.312L295.345 225.515H241.667V218.557L287.889 205.138L327.429 156.31C327.429 156.31 345.384 167.403 343.973 179.312Z" fill="#0794F3"/>
<path d="M241.667 218.557C241.667 218.557 215.822 220.545 222.78 225.515H241.667V218.557Z" fill="#FDA57D"/>
<path d="M207.869 161.897C207.869 161.897 201.408 142.513 196.935 147.98C192.462 153.448 199.42 164.879 199.42 164.879L207.869 161.897Z" fill="#FDA57D"/>
<path opacity="0.05" d="M345.047 251.857V254.177L265.524 254.342V251.857H345.047Z" fill="black"/>
<path d="M283.187 297.854L229.694 302.729L226.792 411.96L207.641 405.725C207.641 405.725 179 281.968 206.311 271.536C233.622 261.105 263.144 247.369 280.77 258.563C298.396 269.758 283.187 297.854 283.187 297.854Z" fill="#39447A"/>
<path opacity="0.1" d="M279.937 264.283C279.937 264.283 250.613 279.193 246.637 296.092Z" fill="black"/>
<path d="M311.249 294.601L269.5 328.398L316.219 403.448L296.836 408.915C296.836 408.915 215.822 339.333 232.72 315.476C249.619 291.619 266.518 263.786 287.392 263.289C308.267 262.792 311.249 294.601 311.249 294.601Z" fill="#39447A"/>
<path opacity="0.05" d="M245.643 184.76L235.205 202.652L232.72 197.682L245.643 184.76Z" fill="black"/>
<path d="M316.219 403.448C316.219 403.448 331.627 415.377 319.699 419.353C307.77 423.329 283.416 426.311 283.416 426.311C283.416 426.311 279.44 419.353 284.907 416.371C290.375 413.389 297.83 414.88 297.83 414.88L296.836 408.915L316.219 403.448Z" fill="#333333"/>
<path d="M226.347 411.607C226.347 411.607 233.115 430.376 220.889 427.442C208.662 424.508 186.416 414.159 186.416 414.159C186.416 414.159 186.721 406.151 192.938 406.511C199.155 406.872 204.694 412.08 204.694 412.08L207.372 405.436L226.347 411.607Z" fill="#333333"/>
<path d="M305.285 133.07H305.285C310.775 133.07 315.225 137.52 315.225 143.01V152.951C315.225 158.441 310.775 162.891 305.285 162.891H305.285C299.795 162.891 295.345 158.441 295.345 152.951V143.01C295.345 137.52 299.795 133.07 305.285 133.07Z" fill="#FDA57D"/>
<path opacity="0.05" d="M305.285 134.064C307.921 134.064 310.45 135.111 312.314 136.975C314.178 138.84 315.225 141.368 315.225 144.004V147.382C308.769 149.506 301.801 149.506 295.345 147.382V144.004C295.345 141.368 296.392 138.84 298.256 136.975C300.12 135.111 302.649 134.064 305.285 134.064Z" fill="black"/>
<path opacity="0.05" d="M337.094 114.728C337.094 114.728 329.142 116.777 324.669 107.739C320.196 98.7006 316.717 93.7707 298.327 99.1115C279.937 104.452 276.238 105.104 275.354 100.054C274.75 96.6024 281.289 88.2199 285.491 83.257C287.541 80.836 290.886 79.3917 294.461 79.3917H315.225L327.651 85.1433L337.094 93.3599L339.082 104.452L337.094 114.728Z" fill="black"/>
<path d="M337.094 113.734C337.094 113.734 329.142 115.783 324.669 106.745C320.196 97.7066 316.717 92.7767 298.327 98.1174C279.937 103.458 276.238 104.11 275.354 99.0595C274.75 95.6084 281.289 87.2259 285.491 82.263C287.541 79.8419 290.886 78.3977 294.461 78.3977H315.225L327.651 84.1493L337.094 92.3659L339.082 103.458L337.094 113.734Z" fill="black"/>
<path d="M336.173 97.0604C336.91 92.8997 337.634 88.5306 336.292 84.5239C335.635 82.6163 334.54 80.889 333.095 79.4802C331.651 78.0714 329.897 77.0202 327.973 76.4107C325.467 75.6402 322.766 75.6566 320.275 74.8365C316.77 73.6822 314.023 71.0033 310.978 68.918C308.287 67.0764 305.319 65.676 302.187 64.7697C299.373 63.9563 296.059 63.643 293.765 65.4658C291.834 67.0001 291.164 69.6302 289.568 71.5107C287.711 73.6991 284.827 74.6478 282.309 76.0249C279.171 77.7807 276.508 80.2745 274.55 83.2906C272.592 86.3067 271.398 89.7544 271.072 93.3354C270.985 94.4024 271.074 95.67 271.974 96.2494C272.533 96.5338 273.163 96.6488 273.787 96.5803C286.5 96.3986 299.228 96.2161 311.889 95.0491C315.825 94.6863 319.768 94.2279 323.718 94.3775C329.831 94.6159 335.8 96.3001 341.136 99.2921" fill="black"/>
<path d="M370.294 380.71H414.288C423.288 380.71 430.583 388.005 430.583 397.004V397.004C430.583 406.004 423.288 413.299 414.288 413.299H370.294C361.295 413.299 353.999 406.004 353.999 397.004C353.999 388.005 361.295 380.71 370.294 380.71Z" fill="#0794F3"/>
<path d="M165.291 264.366C165.098 264.359 164.915 264.278 164.781 264.138C164.646 263.999 164.571 263.814 164.571 263.62C164.571 263.427 164.646 263.241 164.781 263.102C164.915 262.963 165.098 262.881 165.291 262.875C165.485 262.881 165.668 262.963 165.802 263.102C165.936 263.241 166.012 263.427 166.012 263.62C166.012 263.814 165.936 263.999 165.802 264.138C165.668 264.278 165.485 264.359 165.291 264.366Z" fill="url(#paint2_linear)"/>
<path d="M55.8997 230.983L4.20967 414.925" stroke="#E0E0E0" stroke-width="8" stroke-miterlimit="10"/>
<path d="M3.99997 225.596H283.129V236.473H3.99997V225.596Z" fill="#E0E0E0"/>
<path d="M171.835 223.03H211.1C212.884 223.03 214.331 224.477 214.331 226.261V226.261C214.331 228.045 212.884 229.492 211.1 229.492H171.835C170.051 229.492 168.605 228.045 168.605 226.261C168.605 224.477 170.051 223.03 171.835 223.03Z" fill="#535461"/>
<g opacity="0.7">
<path opacity="0.7" d="M86.8751 150.993H172.472C180.218 150.993 186.498 157.272 186.498 165.018V215.546C186.498 223.293 180.218 229.572 172.472 229.572H86.8751C79.1289 229.572 72.8494 223.293 72.8494 215.546V165.018C72.8494 157.272 79.1289 150.993 86.8751 150.993Z" fill="url(#paint3_linear)"/>
</g>
<path d="M90.1501 152.443H171.134C178.5 152.443 184.471 158.414 184.471 165.78V216.235C184.471 223.601 178.5 229.572 171.134 229.572H90.1501C82.784 229.572 76.8126 223.601 76.8126 216.235V165.78C76.8126 158.414 82.784 152.443 90.1501 152.443Z" fill="#3E3F49"/>
<path d="M88.6591 152.443H169.643C177.009 152.443 182.98 158.414 182.98 165.78V216.235C182.98 223.601 177.009 229.572 169.643 229.572H88.6591C81.293 229.572 75.3215 223.601 75.3215 216.235V165.78C75.3215 158.414 81.293 152.443 88.6591 152.443Z" fill="#535461"/>
<path d="M124.122 193.955C122.2 193.955 120.642 192.397 120.642 190.476C120.642 188.554 122.2 186.996 124.122 186.996C126.043 186.996 127.601 188.554 127.601 190.476C127.601 192.397 126.043 193.955 124.122 193.955Z" fill="#E0E0E0"/>
<path d="M16.0001 120C16.0001 53.7258 69.7259 0 136 0H398C409.046 0 418 8.95431 418 20V251C418 317.274 364.274 371 298 371H36.0001C24.9544 371 16.0001 362.046 16.0001 351V120Z" fill="#161E27"/>
<rect x="321.999" y="51" width="116" height="19" rx="9.5" fill="#161E27"/>
<rect x="335.999" y="89" width="116" height="19" rx="9.5" fill="#161E27"/>
<rect x="402.999" y="70" width="30" height="19" rx="9.5" fill="#181818"/>
<path d="M362.355 359.153C362.355 381.638 375.723 389.489 392.21 389.489C392.594 389.489 392.976 389.485 393.356 389.475C394.119 389.458 394.877 389.425 395.624 389.371C410.506 388.319 422.067 380.063 422.067 359.153C422.067 337.515 394.42 310.21 392.335 308.183L392.331 308.181C392.252 308.102 392.21 308.063 392.21 308.063C392.21 308.063 362.355 336.667 362.355 359.153Z" fill="#3F3D56"/>
<path d="M393.3 386.049L382.379 370.792L393.327 387.724L393.356 389.475C394.119 389.458 394.877 389.425 395.624 389.371L394.447 366.876L394.456 366.702L394.435 366.669L394.325 364.544L405.299 347.569L394.292 362.95L394.265 363.401L393.375 346.404L402.77 328.865L393.26 343.419L392.335 308.183L392.331 308.063V308.181L392.484 335.967L383.132 324.951L392.524 338.36L392.771 353.578L384.037 338.974L392.808 355.819L392.945 364.278L380.267 343.95L392.993 367.231L393.3 386.049Z" fill="#F2F2F2"/>
<g opacity="0.7">
<path opacity="0.7" d="M37.0065 201.554V196.138H64.0819V221.183C64.0819 222.583 63.5256 223.926 62.5355 224.916C61.5454 225.907 60.2024 226.463 58.8022 226.463H42.2862C40.8859 226.463 39.543 225.907 38.5529 224.916C37.5627 223.926 37.0065 222.583 37.0065 221.183V215.633C35.1395 215.633 33.3489 214.891 32.0287 213.571C30.7085 212.251 29.9669 210.46 29.9669 208.593C29.9669 206.726 30.7085 204.936 32.0287 203.615C33.3489 202.295 35.1395 201.554 37.0065 201.554V201.554ZM37.0065 212.925V204.261C35.8575 204.261 34.7557 204.717 33.9433 205.53C33.1309 206.342 32.6744 207.444 32.6744 208.593C32.6744 209.742 33.1309 210.844 33.9433 211.656C34.7557 212.469 35.8575 212.925 37.0065 212.925V212.925Z" fill="url(#paint4_linear)"/>
</g>
<path d="M37.8776 202.401C39.1489 202.401 40.3915 202.778 41.4485 203.484C42.5055 204.191 43.3293 205.194 43.8158 206.369C44.3023 207.543 44.4296 208.836 44.1815 210.083C43.9335 211.329 43.3214 212.475 42.4225 213.373C41.5236 214.272 40.3783 214.885 39.1315 215.133C37.8847 215.381 36.5924 215.253 35.4179 214.767C34.2435 214.28 33.2396 213.456 32.5334 212.399C31.8271 211.342 31.4502 210.1 31.4502 208.829C31.4502 207.124 32.1273 205.489 33.3327 204.284C34.5381 203.078 36.173 202.401 37.8776 202.401V202.401ZM37.8776 212.784C38.6599 212.784 39.4246 212.552 40.0751 212.117C40.7256 211.683 41.2325 211.065 41.5319 210.342C41.8313 209.619 41.9096 208.824 41.757 208.057C41.6044 207.29 41.2276 206.585 40.6745 206.032C40.1213 205.479 39.4165 205.102 38.6493 204.949C37.882 204.797 37.0867 204.875 36.364 205.174C35.6412 205.474 35.0235 205.981 34.5888 206.631C34.1542 207.282 33.9222 208.046 33.9222 208.829C33.9222 209.878 34.339 210.884 35.0807 211.625C35.8225 212.367 36.8286 212.784 37.8776 212.784Z" fill="#0794F3"/>
<path opacity="0.1" d="M37.8776 202.401C39.1489 202.401 40.3915 202.778 41.4485 203.484C42.5055 204.191 43.3293 205.194 43.8158 206.369C44.3023 207.543 44.4296 208.836 44.1815 210.083C43.9335 211.329 43.3214 212.475 42.4225 213.373C41.5236 214.272 40.3783 214.885 39.1315 215.133C37.8847 215.381 36.5924 215.253 35.4179 214.767C34.2435 214.28 33.2396 213.456 32.5334 212.399C31.8271 211.342 31.4502 210.1 31.4502 208.829C31.4502 207.124 32.1273 205.489 33.3327 204.284C34.5381 203.078 36.173 202.401 37.8776 202.401V202.401ZM37.8776 212.784C38.6599 212.784 39.4246 212.552 40.0751 212.117C40.7256 211.683 41.2325 211.065 41.5319 210.342C41.8313 209.619 41.9096 208.824 41.757 208.057C41.6044 207.29 41.2276 206.585 40.6745 206.032C40.1213 205.479 39.4165 205.102 38.6493 204.949C37.882 204.797 37.0867 204.875 36.364 205.174C35.6412 205.474 35.0235 205.981 34.5888 206.631C34.1542 207.282 33.9222 208.046 33.9222 208.829C33.9222 209.878 34.339 210.884 35.0807 211.625C35.8225 212.367 36.8286 212.784 37.8776 212.784Z" fill="black"/>
<path d="M62.5986 197.457H37.8776V220.298C37.8776 221.584 38.3881 222.816 39.2969 223.725C40.2057 224.634 41.4383 225.144 42.7235 225.144H57.7527C59.0379 225.144 60.2705 224.634 61.1793 223.725C62.088 222.816 62.5986 221.584 62.5986 220.298V197.457Z" fill="#0794F3"/>
<path opacity="0.1" d="M42.3274 197.457V220.324C42.3274 221.602 42.8352 222.828 43.7393 223.733C44.6433 224.637 45.8694 225.144 47.1479 225.144H44.6758C43.3973 225.144 42.1712 224.637 41.2672 223.733C40.3631 222.828 39.8553 221.602 39.8553 220.324V197.457H42.3274Z" fill="black"/>
<path d="M57.7202 179.027C57.9317 179.033 58.1391 179.087 58.3278 179.182C58.5164 179.278 58.6817 179.414 58.8119 179.581C59.1362 180.169 58.5486 180.832 58.0124 181.236C57.0217 181.982 55.9775 182.715 55.3041 183.756C54.6307 184.798 54.4192 186.252 55.1553 187.25C56.1165 188.553 58.4096 188.834 58.6315 190.438C58.774 191.468 57.8837 192.347 56.9815 192.863C54.7547 194.139 51.8841 194.479 50.2712 196.475C49.6039 195.103 48.1115 194.31 46.6239 193.971C45.1363 193.633 43.5906 193.658 42.0823 193.428C41.836 193.423 41.5942 193.361 41.3765 193.245C41.1588 193.13 40.9713 192.965 40.8293 192.763C40.4077 191.908 41.6093 190.882 41.1946 190.023C40.8789 189.369 39.9516 189.42 39.2745 189.158C38.1718 188.731 37.7172 187.312 38.0301 186.172C38.3431 185.032 39.227 184.141 40.1566 183.411C42.6617 181.443 45.6739 180.285 48.7206 179.452C50.1376 179.065 51.801 178.458 53.2728 178.399C54.6936 178.342 56.314 178.786 57.7202 179.027Z" fill="#EEEEEE"/>
<path d="M231.229 230.983L282.919 392.017" stroke="#E0E0E0" stroke-width="8" stroke-miterlimit="10"/>
<g opacity="0.7">
<path opacity="0.7" d="M191.18 410.153C197.538 410.522 203.203 415.848 203.203 415.848L205.942 409.054L206.165 409.127C204.827 403.27 177.603 282.526 204.856 272.117C225.797 264.119 248.009 254.22 265.412 254.592V226.069H241.014V225.052H221.699C217.996 222.407 223.376 220.589 229.389 219.452C229.144 219.172 228.928 218.867 228.745 218.543L197.809 163.04C197.809 163.04 190.693 151.35 195.267 145.758C199.842 140.167 206.45 159.991 206.45 159.991L231.864 196.588C231.864 196.588 257.515 169.853 273.832 156.557C275.643 154.763 277.686 153.219 279.907 151.966C282.885 149.951 285.14 148.907 286.252 149.317C286.263 149.321 286.272 149.328 286.283 149.332C288.756 148.648 291.31 148.3 293.876 148.3H295.909V144.129C291.355 142.625 287.188 140.135 283.707 136.836C280.225 133.537 277.514 129.51 275.767 125.043C272.899 120.294 271.148 114.956 270.645 109.431C270.143 103.906 270.901 98.3393 272.864 93.1505C272.561 93.1147 272.269 93.0136 272.008 92.8542C271.088 92.2616 270.997 90.9653 271.086 89.8741C271.419 86.2118 272.64 82.686 274.643 79.6015C276.645 76.5169 279.369 73.9666 282.578 72.1709C285.153 70.7626 288.103 69.7924 290.002 67.5543C291.634 65.6312 292.319 62.9415 294.294 61.3723C296.64 59.5082 300.028 59.8287 302.907 60.6605C306.11 61.5873 309.145 63.0194 311.897 64.9028C315.011 67.0354 317.821 69.7751 321.405 70.9555C323.952 71.7943 326.715 71.7775 329.278 72.5655C331.245 73.1888 333.039 74.2638 334.516 75.7046C335.993 77.1453 337.113 78.9118 337.785 80.8627C338.438 82.9586 338.685 85.1596 338.513 87.348C340.072 89.9535 341.298 92.7439 342.164 95.6541C342.356 95.7577 342.549 95.859 342.739 95.9658L342.182 95.7152C344.126 102.278 344.19 109.254 342.368 115.851C340.546 122.448 336.909 128.402 331.872 133.036C327.892 138.217 322.446 142.083 316.241 144.129V149.175C320.668 150.13 324.891 151.859 328.716 154.284L328.721 154.277C328.721 154.277 329.046 154.478 329.601 154.852C329.657 154.889 329.712 154.926 329.768 154.964C333.529 157.517 346.133 166.844 345.707 176.924C345.724 177.311 345.721 177.7 345.7 178.09C346.388 181.003 346.737 183.985 346.738 186.978V260.124C346.748 268.207 344.032 276.056 339.029 282.404C349.636 284.781 356.396 288.377 356.396 292.401C356.343 292.738 356.343 293.081 356.396 293.417C356.396 300.576 335.004 306.379 308.617 306.379C305.426 306.379 302.31 306.293 299.294 306.132L269.478 330.269L317.258 407.021C317.258 407.021 333.015 419.22 320.816 423.286C308.617 427.353 283.71 430.402 283.71 430.402C283.71 430.402 279.644 423.286 285.235 420.236C290.826 417.187 298.451 418.712 298.451 418.712L297.434 412.612C297.434 412.612 214.582 341.451 231.864 317.053C235.171 312.385 238.477 307.569 241.812 302.828L228.769 304.017L225.801 415.725L225.43 415.604C226.175 417.799 231.445 434.362 219.764 431.559C207.26 428.558 184.509 417.975 184.509 417.975C184.509 417.975 184.822 409.784 191.18 410.153ZM241.014 217.936L265.412 210.853V189.98L238.894 218.13C240.198 217.999 241.014 217.936 241.014 217.936Z" fill="url(#paint5_linear)"/>
</g>
<path d="M265.524 191.221L238.214 220.211C237.639 220.822 236.928 221.288 236.139 221.573C235.35 221.857 234.505 221.951 233.673 221.848C232.84 221.744 232.044 221.446 231.349 220.978C230.653 220.509 230.078 219.883 229.67 219.151L199.42 164.879L207.869 161.897L232.72 197.682C232.72 197.682 279.374 149.056 285.901 151.46C292.429 153.864 265.524 191.221 265.524 191.221Z" fill="#0794F3"/>
<path d="M317.711 291.619L357.969 395.993" stroke="#BDBDBD" stroke-width="5" stroke-miterlimit="10"/>
<path d="M297.83 291.619L257.571 395.993" stroke="#BDBDBD" stroke-width="5" stroke-miterlimit="10"/>
<path d="M307.77 305.038C281.968 305.038 261.05 299.364 261.05 292.364C261.05 285.365 281.968 279.69 307.77 279.69C333.573 279.69 354.49 285.365 354.49 292.364C354.49 299.364 333.573 305.038 307.77 305.038Z" fill="#B84733"/>
<path d="M307.77 304.044C281.968 304.044 261.05 298.37 261.05 291.37C261.05 284.371 281.968 278.696 307.77 278.696C333.573 278.696 354.49 284.371 354.49 291.37C354.49 298.37 333.573 304.044 307.77 304.044Z" fill="#F55F44"/>
<path d="M327.429 314.55L283.349 328.134" stroke="#BDBDBD" stroke-width="5" stroke-miterlimit="10"/>
<path d="M288.111 314.55L332.192 328.134" stroke="#BDBDBD" stroke-width="5" stroke-miterlimit="10"/>
<path d="M307.226 150.465H293.357C285.975 150.465 278.895 153.398 273.676 158.618C268.456 163.837 265.524 170.917 265.524 178.299V251.857H345.047V188.286C345.047 178.255 341.062 168.636 333.969 161.543C326.877 154.45 317.257 150.465 307.226 150.465V150.465Z" fill="#0794F3"/>
<path d="M345.047 251.857H265.524V295.098H309.758C319.117 295.098 328.093 291.38 334.711 284.762C341.329 278.145 345.047 269.169 345.047 259.81V251.857V251.857Z" fill="#39447A"/>
<path opacity="0.05" d="M343.973 180.306L295.345 226.51H241.667V219.551L287.889 206.132L327.429 157.304C327.429 157.304 345.384 168.397 343.973 180.306Z" fill="black"/>
<path d="M343.973 179.312L295.345 225.515H241.667V218.557L287.889 205.138L327.429 156.31C327.429 156.31 345.384 167.403 343.973 179.312Z" fill="#0794F3"/>
<path d="M241.667 218.557C241.667 218.557 215.822 220.545 222.78 225.515H241.667V218.557Z" fill="#FDA57D"/>
<path d="M207.869 161.897C207.869 161.897 201.408 142.513 196.935 147.98C192.462 153.448 199.42 164.879 199.42 164.879L207.869 161.897Z" fill="#FDA57D"/>
<path opacity="0.05" d="M345.047 251.857V254.177L265.524 254.342V251.857H345.047Z" fill="black"/>
<path d="M283.187 297.854L229.694 302.729L226.792 411.96L207.641 405.725C207.641 405.725 179 281.968 206.311 271.536C233.622 261.105 263.144 247.369 280.77 258.563C298.396 269.758 283.187 297.854 283.187 297.854Z" fill="#39447A"/>
<path opacity="0.1" d="M279.937 264.283C279.937 264.283 250.613 279.193 246.637 296.092Z" fill="black"/>
<path d="M311.249 294.601L269.5 328.398L316.219 403.448L296.836 408.915C296.836 408.915 215.822 339.333 232.72 315.476C249.619 291.619 266.518 263.786 287.392 263.289C308.267 262.792 311.249 294.601 311.249 294.601Z" fill="#39447A"/>
<path opacity="0.05" d="M245.643 184.76L235.205 202.652L232.72 197.682L245.643 184.76Z" fill="black"/>
<path d="M316.219 403.448C316.219 403.448 331.627 415.377 319.699 419.353C307.77 423.329 283.416 426.311 283.416 426.311C283.416 426.311 279.44 419.353 284.907 416.371C290.375 413.389 297.83 414.88 297.83 414.88L296.836 408.915L316.219 403.448Z" fill="#333333"/>
<path d="M226.347 411.607C226.347 411.607 233.115 430.376 220.889 427.442C208.662 424.508 186.416 414.159 186.416 414.159C186.416 414.159 186.721 406.151 192.938 406.511C199.155 406.872 204.694 412.08 204.694 412.08L207.372 405.436L226.347 411.607Z" fill="#333333"/>
<path d="M305.285 133.07H305.285C310.775 133.07 315.225 137.52 315.225 143.01V152.951C315.225 158.441 310.775 162.891 305.285 162.891H305.285C299.795 162.891 295.345 158.441 295.345 152.951V143.01C295.345 137.52 299.795 133.07 305.285 133.07Z" fill="#FDA57D"/>
<path opacity="0.05" d="M305.285 134.064C307.921 134.064 310.45 135.111 312.314 136.975C314.178 138.84 315.225 141.368 315.225 144.004V147.382C308.769 149.506 301.801 149.506 295.345 147.382V144.004C295.345 141.368 296.392 138.84 298.256 136.975C300.12 135.111 302.649 134.064 305.285 134.064Z" fill="black"/>
<path opacity="0.05" d="M337.094 114.728C337.094 114.728 329.142 116.777 324.669 107.739C320.196 98.7006 316.717 93.7707 298.327 99.1115C279.937 104.452 276.238 105.104 275.354 100.054C274.75 96.6024 281.289 88.2199 285.491 83.257C287.541 80.836 290.886 79.3917 294.461 79.3917H315.225L327.651 85.1433L337.094 93.3599L339.082 104.452L337.094 114.728Z" fill="black"/>
<path d="M370.294 380.71H414.288C423.288 380.71 430.583 388.005 430.583 397.004V397.004C430.583 406.004 423.288 413.299 414.288 413.299H370.294C361.295 413.299 353.999 406.004 353.999 397.004C353.999 388.005 361.295 380.71 370.294 380.71Z" fill="#0794F3"/>
<path d="M165.291 264.366C165.098 264.359 164.915 264.278 164.781 264.138C164.646 263.999 164.571 263.814 164.571 263.62C164.571 263.427 164.646 263.241 164.781 263.102C164.915 262.963 165.098 262.881 165.291 262.875C165.485 262.881 165.668 262.963 165.802 263.102C165.936 263.241 166.012 263.427 166.012 263.62C166.012 263.814 165.936 263.999 165.802 264.138C165.668 264.278 165.485 264.359 165.291 264.366Z" fill="url(#paint6_linear)"/>
<path d="M55.8997 230.983L4.20967 414.925" stroke="#E0E0E0" stroke-width="8" stroke-miterlimit="10"/>
<path d="M3.99997 225.596H283.129V236.473H3.99997V225.596Z" fill="#E0E0E0"/>
<path d="M171.835 223.03H211.1C212.884 223.03 214.331 224.477 214.331 226.261V226.261C214.331 228.045 212.884 229.492 211.1 229.492H171.835C170.051 229.492 168.605 228.045 168.605 226.261C168.605 224.477 170.051 223.03 171.835 223.03Z" fill="#535461"/>
<g opacity="0.7">
<path opacity="0.7" d="M86.8751 150.993H172.472C180.218 150.993 186.498 157.272 186.498 165.018V215.546C186.498 223.293 180.218 229.572 172.472 229.572H86.8751C79.1289 229.572 72.8494 223.293 72.8494 215.546V165.018C72.8494 157.272 79.1289 150.993 86.8751 150.993Z" fill="url(#paint7_linear)"/>
</g>
<path d="M90.1501 152.443H171.134C178.5 152.443 184.471 158.414 184.471 165.78V216.235C184.471 223.601 178.5 229.572 171.134 229.572H90.1501C82.784 229.572 76.8126 223.601 76.8126 216.235V165.78C76.8126 158.414 82.784 152.443 90.1501 152.443Z" fill="#3E3F49"/>
<path d="M88.6591 152.443H169.643C177.009 152.443 182.98 158.414 182.98 165.78V216.235C182.98 223.601 177.009 229.572 169.643 229.572H88.6591C81.293 229.572 75.3215 223.601 75.3215 216.235V165.78C75.3215 158.414 81.293 152.443 88.6591 152.443Z" fill="#535461"/>
<path d="M124.122 193.955C122.2 193.955 120.642 192.397 120.642 190.476C120.642 188.554 122.2 186.996 124.122 186.996C126.043 186.996 127.601 188.554 127.601 190.476C127.601 192.397 126.043 193.955 124.122 193.955Z" fill="#E0E0E0"/>
<g clip-path="url(#clip0)">
<path d="M278.818 94.3783C278.818 94.3783 278.572 75.5685 284.646 71.5172C290.72 67.466 304.237 65.8745 304.237 65.8745C304.237 65.8745 317.691 67.9875 320.842 70.1865C323.994 72.3855 328.081 70.8531 330.421 76.9878C332.762 83.1224 333.57 102.25 333.57 102.25C333.57 102.25 333.104 127.831 326.334 134.893C319.565 141.955 312.73 148.784 306.86 148.697C300.989 148.611 297.887 149.175 295.611 147.699C293.334 146.223 284.312 136.674 281.689 128.729C279.066 120.784 278.005 109.717 278.057 106.028C278.108 102.338 278.818 94.3783 278.818 94.3783Z" fill="#F9BF97"/>
<path opacity="0.9" d="M279.049 94.3366C279.049 94.3366 278.803 75.5267 284.877 71.4755C290.951 67.4242 304.468 65.8328 304.468 65.8328C304.468 65.8328 317.922 67.9432 321.073 70.1447C324.225 72.3462 328.314 70.8089 330.652 76.9435C332.991 83.0782 333.801 102.208 333.801 102.208C333.801 102.208 333.335 127.789 326.565 134.849C319.796 141.909 312.961 148.739 307.105 148.653C301.25 148.567 298.133 149.13 295.856 147.655C293.579 146.179 284.558 136.63 281.935 128.685C279.312 120.74 278.251 109.673 278.302 105.984C278.354 102.294 279.049 94.3366 279.049 94.3366Z" fill="#FDA880"/>
<path d="M280.771 99.2512C280.873 98.8392 281.023 98.4404 281.218 98.0632C281.424 97.6818 281.671 97.3239 281.955 96.9956C282.552 96.3068 283.324 95.7919 284.19 95.505C284.409 95.4303 284.634 95.3735 284.863 95.3353C285.089 95.2905 285.319 95.2625 285.55 95.2517C285.663 95.2517 285.796 95.232 285.892 95.2271H286.201C286.408 95.2271 286.616 95.2271 286.823 95.2271C287.648 95.2271 288.473 95.2639 289.298 95.3131C290.124 95.3623 290.954 95.4435 291.786 95.5394C292.199 95.6083 292.614 95.66 293.029 95.7485C293.444 95.8371 293.852 95.9379 294.257 96.0437C294.663 96.1495 295.08 96.2675 295.485 96.4004L296.102 96.6094C296.308 96.6832 296.507 96.7792 296.709 96.8677C296.909 96.9643 297.104 97.0735 297.291 97.1949C297.484 97.3149 297.667 97.4489 297.841 97.5958L298.101 97.8196C298.202 97.8899 298.286 97.9815 298.347 98.0878C298.415 98.2266 298.451 98.3785 298.455 98.533C298.464 98.7603 298.434 98.9875 298.366 99.2045C298.342 99.2893 298.289 99.3631 298.217 99.4136C298.028 99.5474 297.827 99.6635 297.617 99.7604C297.494 99.822 297.36 99.8604 297.222 99.8736C297.126 99.8766 297.03 99.8625 296.939 99.8317L296.674 99.758C296.5 99.7112 296.328 99.6497 296.151 99.6054L295.635 99.4259C294.965 99.1479 294.26 98.8675 293.535 98.6388C292.062 98.2206 290.563 97.7778 289.021 97.4507C288.25 97.2859 287.471 97.1358 286.69 97.0128C286.494 96.9759 286.299 96.9464 286.103 96.9145L285.808 96.8653L285.545 96.8382C285.374 96.8121 285.201 96.8006 285.027 96.8038C284.854 96.7979 284.681 96.807 284.509 96.8308C283.796 96.91 283.118 97.1793 282.544 97.6106C282.243 97.8421 281.968 98.1042 281.721 98.3928C281.462 98.684 281.238 99.0043 281.053 99.3472C281.018 99.3997 280.951 99.4207 280.892 99.3977C280.833 99.3747 280.798 99.3138 280.808 99.2512H280.771Z" fill="#313030"/>
<path d="M278.5 99.5L277 78L280.5 80.5L278.5 99.5Z" fill="black"/>
<path d="M333.585 104L337 92.2264L333.098 88.3019L333.585 104Z" fill="black"/>
<path d="M337.067 91.8091C337.067 91.8091 329.335 93.7699 324.986 85.1222C320.637 76.4746 317.254 71.7576 299.374 76.8676C281.494 81.9776 277.897 82.6011 277.038 77.769C276.451 74.467 282.809 66.4467 286.894 61.6983C288.887 59.3818 292.139 58 295.615 58H315.804L327.885 63.5031L337.067 71.3646L339 81.9777L337.067 91.8091Z" fill="black"/>
<path d="M336.185 75.8425C336.9 71.82 337.603 67.596 336.301 63.7224C335.663 61.8782 334.601 60.2082 333.2 58.8462C331.798 57.4842 330.096 56.4679 328.23 55.8787C325.799 55.1338 323.178 55.1496 320.762 54.3567C317.361 53.2409 314.695 50.6509 311.742 48.6348C309.131 46.8544 306.252 45.5005 303.213 44.6244C300.482 43.838 297.268 43.5351 295.042 45.2973C293.169 46.7807 292.518 49.3234 290.97 51.1414C289.169 53.2572 286.371 54.1744 283.928 55.5057C280.883 57.2032 278.3 59.6142 276.4 62.5301C274.5 65.446 273.342 68.7791 273.025 72.2412C272.941 73.2727 273.027 74.4982 273.901 75.0584C274.443 75.3334 275.054 75.4446 275.659 75.3783C287.993 75.2027 300.342 75.0262 312.625 73.898C316.444 73.5472 320.27 73.1041 324.102 73.2487C330.032 73.4791 335.823 75.1074 341 78" fill="black"/>
<path d="M327.894 99.3373C327.708 98.9949 327.484 98.6748 327.226 98.3829C326.979 98.0937 326.703 97.8315 326.401 97.6007C325.827 97.1694 325.149 96.9001 324.436 96.8209C324.264 96.7971 324.091 96.788 323.918 96.7939C323.744 96.7907 323.571 96.8022 323.399 96.8283L323.137 96.8554L322.842 96.9046C322.645 96.9365 322.451 96.9661 322.255 97.0029C321.474 97.1259 320.695 97.276 319.924 97.4408C318.379 97.7679 316.878 98.2156 315.41 98.6289C314.685 98.8552 313.978 99.1208 313.302 99.3963L312.784 99.571L312.256 99.7235L311.993 99.7973C311.901 99.8274 311.805 99.8424 311.708 99.8416C311.572 99.8291 311.439 99.7933 311.315 99.7358C311.109 99.6426 310.912 99.5315 310.726 99.4037C310.65 99.3526 310.595 99.277 310.568 99.1897C310.497 98.9672 310.463 98.7345 310.468 98.501C310.472 98.3445 310.508 98.1906 310.573 98.0484C310.633 97.941 310.717 97.8492 310.819 97.7802L311.079 97.5564C311.254 97.4109 311.439 97.2777 311.632 97.1579C311.82 97.0377 312.016 96.9301 312.219 96.8357C312.42 96.7471 312.619 96.6537 312.828 96.5897L313.445 96.388C313.857 96.2552 314.27 96.142 314.673 96.0363C315.075 95.9305 315.495 95.8272 315.901 95.7435C316.306 95.6599 316.728 95.6033 317.141 95.5345C317.974 95.4361 318.801 95.3524 319.627 95.3057C320.452 95.259 321.28 95.2221 322.105 95.2196C322.311 95.2196 322.52 95.2196 322.726 95.2196H323.036C323.141 95.2196 323.264 95.2368 323.377 95.2442C323.607 95.2549 323.836 95.2829 324.062 95.3278C324.292 95.3658 324.518 95.4226 324.738 95.4976C325.603 95.7844 326.375 96.2993 326.973 96.9882C327.256 97.3165 327.503 97.6744 327.71 98.0557C327.903 98.4335 328.053 98.8321 328.157 99.2438C328.166 99.3064 328.131 99.3672 328.072 99.3903C328.014 99.4133 327.947 99.3923 327.911 99.3397L327.894 99.3373Z" fill="#313030"/>
<mask id="mask0" mask-type="alpha" maskUnits="userSpaceOnUse" x="284" y="101" width="13" height="6">
<path d="M284.494 104.69C284.494 104.69 286.371 101.723 290.532 101.637C294.354 101.711 296.023 104.124 296.458 104.508C296.893 104.891 296.846 105.115 296.458 105.201C296.07 105.287 292.644 107.162 290.433 106.938C288.223 106.714 285.708 104.906 284.494 104.69Z" fill="white"/>
</mask>
<g mask="url(#mask0)">
<path d="M284.494 104.69C284.494 104.69 286.371 101.723 290.532 101.637C294.354 101.711 296.023 104.124 296.458 104.508C296.893 104.891 296.846 105.115 296.458 105.201C296.07 105.287 292.644 107.162 290.433 106.938C288.223 106.714 285.708 104.906 284.494 104.69Z" fill="#FDFDFD"/>
<path d="M291.266 105.765C292.744 105.765 293.943 104.62 293.943 103.209C293.943 101.797 292.744 100.653 291.266 100.653C289.787 100.653 288.589 101.797 288.589 103.209C288.589 104.62 289.787 105.765 291.266 105.765Z" fill="#333333"/>
</g>
<mask id="mask1" mask-type="alpha" maskUnits="userSpaceOnUse" x="311" y="101" width="14" height="6">
<path d="M318.399 101.68C314.526 101.626 312.59 103.856 312.155 104.247C311.72 104.638 311.765 104.855 312.155 104.941C312.546 105.027 315.97 106.896 318.18 106.677C320.333 106.503 322.392 105.72 324.119 104.422C324.119 104.422 322.559 101.766 318.399 101.68Z" fill="white"/>
</mask>
<g mask="url(#mask1)">
<path d="M318.399 101.68C314.526 101.626 312.59 103.856 312.155 104.247C311.72 104.638 311.765 104.855 312.155 104.941C312.546 105.027 315.97 106.896 318.18 106.677C320.333 106.503 322.392 105.72 324.119 104.422C324.119 104.422 322.559 101.766 318.399 101.68Z" fill="#F4F4F4"/>
<path d="M318.286 105.671C319.764 105.671 320.963 104.527 320.963 103.116C320.963 101.704 319.764 100.56 318.286 100.56C316.807 100.56 315.609 101.704 315.609 103.116C315.609 104.527 316.807 105.671 318.286 105.671Z" fill="#333333"/>
</g>
<path d="M297.512 121.277C297.552 121.053 297.655 120.845 297.809 120.677C297.965 120.5 298.165 120.367 298.389 120.293C298.637 120.213 298.908 120.235 299.14 120.355C299.34 120.478 299.508 120.647 299.631 120.847C299.75 121.009 299.877 121.165 300.012 121.314C300.14 121.467 300.258 121.622 300.388 121.782L300.754 122.251C300.87 122.413 301.012 122.555 301.174 122.672C301.01 122.558 300.863 122.421 300.739 122.264L300.346 121.813C300.214 121.666 300.078 121.521 299.938 121.381C299.804 121.234 299.656 121.1 299.496 120.982C299.347 120.883 299.169 120.835 298.99 120.847C298.847 120.861 298.705 120.886 298.565 120.923C298.276 120.992 297.954 121.14 297.512 121.277Z" fill="#60280F"/>
<path d="M310 121.467C309.49 121.257 309.051 121.015 308.646 120.907C308.553 120.88 308.459 120.863 308.363 120.856C308.273 120.834 308.191 120.818 308.099 120.789C307.87 120.74 307.638 120.843 307.491 121.059C307.173 121.532 306.79 121.936 306.359 122.252C305.934 122.57 305.478 122.822 305 123C305.471 122.814 305.916 122.546 306.322 122.205C306.732 121.869 307.09 121.449 307.38 120.964C307.519 120.654 307.708 120.379 307.935 120.156C308.008 120.108 308.085 120.068 308.165 120.038C308.319 119.987 308.482 119.987 308.636 120.038C308.71 120.055 308.783 120.082 308.852 120.118C309.116 120.238 309.355 120.424 309.553 120.665C309.747 120.892 309.899 121.165 310 121.467Z" fill="#60280F"/>
<path d="M297.515 114.382C296.922 114.824 296.373 115.325 295.877 115.879C295.383 116.406 295.013 117.043 294.796 117.741L294.757 117.869L294.737 118.001L294.695 118.255C294.695 118.438 294.673 118.621 294.695 118.801C294.7 119.166 294.755 119.529 294.86 119.878C295.078 120.593 295.482 121.232 296.027 121.726C295.705 121.527 295.416 121.278 295.169 120.986C294.922 120.683 294.725 120.34 294.587 119.97C294.445 119.601 294.363 119.21 294.342 118.814C294.331 118.616 294.331 118.417 294.342 118.219C294.342 118.12 294.369 118.021 294.383 117.919L294.405 117.769L294.447 117.625L294.536 117.335L294.654 117.063C294.692 116.975 294.737 116.89 294.789 116.809C294.838 116.725 294.882 116.636 294.938 116.555C295.155 116.234 295.402 115.936 295.675 115.666C296.217 115.137 296.838 114.704 297.515 114.382Z" fill="#522512"/>
<path d="M311.303 115.431C311.774 115.82 312.184 116.279 312.516 116.792C312.871 117.309 313.11 117.896 313.219 118.513C313.268 118.832 313.263 119.156 313.207 119.473C313.143 119.778 313.05 120.075 312.927 120.361C312.801 120.648 312.631 120.913 312.423 121.148C312.218 121.382 311.951 121.553 311.652 121.64C312.143 121.313 312.5 120.821 312.659 120.253C312.749 119.976 312.817 119.693 312.863 119.406C312.906 119.128 312.906 118.846 312.863 118.568C312.762 117.995 312.564 117.444 312.276 116.939C311.988 116.414 311.663 115.91 311.303 115.431Z" fill="#522512"/>
<path d="M289.608 133.208C289.608 133.208 288.134 130.95 288.483 128.606C288.832 126.262 290.735 126.653 292.339 126.437C293.943 126.22 296.37 126.437 296.804 125.394C297.239 124.351 298.624 123.802 299.707 124.033C300.791 124.265 302.5 125.222 303.596 125.003C304.691 124.784 307.4 124.083 308.658 124.69C309.915 125.298 312.32 128.24 313.924 128.38C315.527 128.52 317.738 127.642 318.475 128.872C319.212 130.102 318.644 132.183 318.123 132.876C317.603 133.57 317.696 133.604 317.566 134.775C317.436 135.946 317.697 138.58 318.866 139.276C320.035 139.972 320.536 141.363 319.882 141.955C319.229 142.548 315.137 146.526 311.713 147.859C308.289 149.192 306.383 148.904 303.957 148.934C301.53 148.963 296.903 149.144 295.17 147.41C293.596 146.366 288.89 141.169 288.333 140.02C287.775 138.871 288.741 136.477 288.741 136.477C288.741 136.477 289.738 134.386 289.608 134.088V133.208Z" fill="#282828"/>
<path opacity="0.9" d="M291.732 129.568C291.732 129.568 290.173 131.521 290.345 132.564C290.517 133.607 291.386 135.899 292.86 137.685C294.333 139.471 297.367 143.2 299.838 141.375C302.309 139.55 302.898 137.963 301.181 136.079C301.181 136.079 300.835 135.7 301.962 135.717C303.09 135.735 305.04 135.717 305.04 135.717C305.04 135.717 305.43 135.875 305.04 136.477C304.649 137.08 303.979 138.381 304.227 139.25C304.475 140.118 305.472 143.894 308.854 142.59C312.236 141.286 316.004 139.075 316.483 136.731C316.962 134.387 316.957 131.45 316.178 130.872C315.81 130.463 311.052 132.19 311.052 132.19C311.052 132.19 299.722 132.293 299.346 132.19C298.971 132.087 291.732 129.568 291.732 129.568Z" fill="#FFAA82"/>
<path d="M316.178 130.321C313.968 131.211 310.588 130.995 307.783 130.906C306.181 130.844 304.577 130.961 303.001 131.255C303.001 131.255 302.439 130.95 298.668 130.906C296.281 130.845 293.927 130.33 291.732 129.388C291.732 129.388 294.505 133.164 298.538 133.995C302.571 134.827 302.222 135.341 306.167 134.692C310.112 134.042 314.921 132.124 316.178 130.321Z" fill="#EE7171"/>
<path d="M291.732 129.388C291.732 129.388 294.847 128.953 297.136 128.562C299.425 128.171 300.388 128.52 301.169 128.562C301.95 128.604 303.094 129.118 303.583 128.884C304.328 128.566 305.127 128.395 305.936 128.38C306.761 128.38 314.346 130.429 316.166 130.321C316.166 130.321 314.886 130.916 311.917 130.987C308.947 131.059 305.551 130.741 303.738 131.125C301.925 131.509 302.21 130.916 298.352 130.901C296.06 130.897 293.799 130.381 291.732 129.388Z" fill="#EE7171"/>
<path opacity="0.9" d="M334.72 98.1099C334.72 98.1099 336.854 97.0916 337.026 98.7691C337.198 100.447 338.124 110.057 335.351 117.232C332.578 124.407 331.962 120.373 331.962 120.373C331.962 120.373 334.03 99.1848 334.72 98.1099Z" fill="#FDA880"/>
<path opacity="0.9" d="M278.469 99.6105C278.469 99.6105 277.516 97.96 277.342 100.739C277.167 103.519 278.469 111.071 277.907 115.328C277.344 119.586 279.626 118.231 279.626 118.231V107.511L278.469 99.6105Z" fill="#FDA880"/>
<path d="M318.281 100.25C319.589 100.256 320.891 100.438 322.152 100.791C322.788 100.962 323.405 101.2 323.991 101.502C324.57 101.82 325.095 102.225 325.549 102.705L325.531 102.722C325.008 102.344 324.456 102.009 323.878 101.721C323.3 101.439 322.704 101.192 322.095 100.983C321.478 100.787 320.849 100.631 320.211 100.516C319.574 100.39 318.929 100.308 318.281 100.27V100.25Z" fill="#522512"/>
<path d="M286.474 100.857C288.126 100.248 289.909 100.078 291.646 100.365C291.865 100.393 292.082 100.436 292.295 100.493C292.506 100.548 292.725 100.594 292.933 100.658L293.557 100.885C293.763 100.964 293.963 101.057 294.157 101.162L294.449 101.315C294.548 101.364 294.643 101.419 294.734 101.482C294.916 101.605 295.102 101.728 295.282 101.854C295.467 101.977 295.643 102.114 295.807 102.264C295.969 102.412 296.136 102.555 296.298 102.705L296.284 102.722C296.099 102.601 295.923 102.476 295.743 102.353C295.573 102.219 295.393 102.098 295.205 101.991C295.016 101.888 294.832 101.772 294.648 101.664C294.557 101.606 294.461 101.557 294.36 101.517L294.068 101.381C293.681 101.196 293.284 101.031 292.879 100.889C292.676 100.818 292.467 100.769 292.26 100.705C292.054 100.643 291.844 100.595 291.632 100.56C290.783 100.393 289.916 100.34 289.053 100.4C288.185 100.452 287.328 100.618 286.503 100.892L286.474 100.857Z" fill="#522512"/>
<path d="M312.42 103.907C313.155 103.237 313.995 102.691 314.906 102.291C315.82 101.886 316.799 101.647 317.797 101.583C318.799 101.511 319.806 101.639 320.759 101.959C321.703 102.287 322.586 102.77 323.372 103.386L323.358 103.408C322.517 102.899 321.619 102.492 320.683 102.193C319.754 101.894 318.782 101.752 317.807 101.772C316.83 101.815 315.868 102.029 314.965 102.405C314.049 102.771 313.2 103.286 312.45 103.927L312.42 103.907Z" fill="#424242"/>
<path d="M294.618 102.897C293.875 102.363 293.023 102.001 292.123 101.837C291.23 101.665 290.313 101.665 289.421 101.837L288.76 102.001C288.651 102.029 288.543 102.065 288.439 102.107L288.122 102.228C287.702 102.387 287.292 102.572 286.894 102.781C286.484 102.978 286.108 103.236 285.707 103.458C285.334 103.718 284.971 103.982 284.575 104.235L284.558 104.215C284.902 103.91 285.252 103.61 285.609 103.315C285.798 103.182 285.995 103.069 286.186 102.931L286.474 102.757L286.619 102.661L286.773 102.579C287.177 102.357 287.598 102.169 288.033 102.019L288.362 101.905C288.472 101.865 288.585 101.833 288.699 101.81L289.379 101.662C290.297 101.509 291.236 101.532 292.145 101.728C293.051 101.926 293.901 102.323 294.635 102.889L294.618 102.897Z" fill="#424242"/>
<path d="M313.373 105.462C314.082 105.805 314.822 106.077 315.584 106.274C316.343 106.481 317.124 106.592 317.91 106.606C318.299 106.609 318.688 106.576 319.072 106.508C319.455 106.434 319.84 106.345 320.221 106.262C320.602 106.178 320.983 106.067 321.356 105.944C321.543 105.883 321.727 105.819 321.909 105.74C322.091 105.669 322.266 105.58 322.432 105.474L322.449 105.492C322.14 105.75 321.792 105.957 321.417 106.104C321.047 106.258 320.668 106.39 320.283 106.498C319.897 106.607 319.506 106.694 319.111 106.758C318.711 106.813 318.308 106.832 317.905 106.815C317.106 106.775 316.315 106.636 315.55 106.402C314.785 106.172 314.044 105.868 313.339 105.494L313.373 105.462Z" fill="#424242"/>
<path d="M295.833 105.613C295.125 105.956 294.384 106.227 293.622 106.424C292.864 106.631 292.082 106.743 291.296 106.756C290.907 106.759 290.518 106.727 290.135 106.658C289.751 106.584 289.366 106.496 288.985 106.412C288.604 106.328 288.224 106.218 287.85 106.095C287.664 106.033 287.48 105.969 287.298 105.891C287.115 105.819 286.94 105.73 286.775 105.625L286.757 105.642C287.066 105.901 287.414 106.108 287.789 106.255C288.159 106.409 288.538 106.54 288.924 106.648C289.309 106.758 289.7 106.845 290.095 106.909C290.495 106.963 290.898 106.982 291.301 106.965C292.1 106.926 292.892 106.787 293.657 106.552C294.421 106.323 295.162 106.019 295.867 105.645L295.833 105.613Z" fill="#424242"/>
<path d="M308.658 101.8C308.36 102.019 308.099 102.283 307.884 102.584C307.661 102.876 307.48 103.197 307.346 103.539C307.276 103.708 307.215 103.881 307.164 104.058C307.113 104.232 307.083 104.414 307.041 104.594C307 104.773 306.997 104.955 306.982 105.14V105.688C307.03 106.424 307.142 107.154 307.316 107.87L307.54 108.96L307.653 109.501L307.719 109.772C307.73 109.817 307.743 109.861 307.759 109.904C307.759 109.922 307.773 109.959 307.788 109.954C307.792 109.932 307.792 109.909 307.788 109.887C307.792 109.91 307.792 109.933 307.788 109.956C307.761 109.956 307.759 109.924 307.749 109.907C307.739 109.89 307.717 109.821 307.702 109.777L307.623 109.508L307.479 108.972L307.221 107.89C307.14 107.528 307.054 107.169 306.99 106.803C306.96 106.618 306.923 106.436 306.901 106.252L306.857 105.691C306.828 104.94 306.967 104.192 307.262 103.502C307.553 102.811 308.038 102.22 308.658 101.8Z" fill="#522512"/>
<path d="M299.708 101.62C300.099 102.022 300.417 102.489 300.648 103C300.882 103.513 301.031 104.06 301.09 104.621C301.133 105.18 301.126 105.741 301.068 106.298C301.021 106.857 300.883 107.405 300.661 107.919C300.76 107.66 300.831 107.39 300.872 107.115C300.922 106.843 300.956 106.568 300.975 106.291C301.019 105.739 301.019 105.185 300.975 104.633C300.923 104.084 300.786 103.547 300.57 103.039C300.354 102.526 300.064 102.048 299.708 101.62Z" fill="#522512"/>
<g opacity="0.9">
<path opacity="0.9" d="M293.491 129.814C294.267 130.026 295.048 130.212 295.837 130.345C296.621 130.489 297.414 130.59 298.209 130.648L298.804 130.677L299.398 130.69C299.801 130.69 300.206 130.69 300.611 130.717C301.017 130.744 301.424 130.773 301.839 130.825C302.255 130.877 302.65 130.955 303.026 131C303.211 131.022 303.397 131.026 303.583 131.012C303.77 131 303.971 130.975 304.165 130.948C304.561 130.896 304.959 130.832 305.362 130.786C306.172 130.687 306.989 130.668 307.803 130.729C308.609 130.776 309.409 130.847 310.21 130.906C310.61 130.938 311.008 130.97 311.409 130.99C311.61 131.002 311.809 131.009 312.01 131.009C312.21 131.018 312.411 131.009 312.61 130.982C312.215 131.071 311.813 131.117 311.409 131.12C311.006 131.137 310.603 131.142 310.2 131.147C309.395 131.147 308.591 131.127 307.791 131.113C306.998 131.09 306.205 131.135 305.42 131.246L304.232 131.425C304.028 131.455 303.831 131.479 303.618 131.499C303.403 131.519 303.187 131.519 302.972 131.499C302.552 131.442 302.169 131.361 301.776 131.31C301.383 131.258 300.99 131.221 300.594 131.191C300.199 131.162 299.798 131.142 299.4 131.127L298.791 131.098L298.182 131.039C296.57 130.845 294.992 130.433 293.491 129.814Z" fill="#B75036"/>
</g>
<path d="M319.072 102.926H318.62C318.498 102.926 318.399 103.025 318.399 103.148V103.6C318.399 103.722 318.498 103.822 318.62 103.822H319.072C319.194 103.822 319.293 103.722 319.293 103.6V103.148C319.293 103.025 319.194 102.926 319.072 102.926Z" fill="white"/>
<path d="M318.703 102.774H318.512C318.39 102.774 318.291 102.873 318.291 102.995V103.187C318.291 103.309 318.39 103.408 318.512 103.408H318.703C318.825 103.408 318.924 103.309 318.924 103.187V102.995C318.924 102.873 318.825 102.774 318.703 102.774Z" fill="white"/>
<path d="M290.848 103.925H291.3C291.422 103.925 291.521 103.826 291.521 103.703V103.251C291.521 103.128 291.422 103.029 291.3 103.029H290.848C290.726 103.029 290.627 103.128 290.627 103.251V103.703C290.627 103.826 290.726 103.925 290.848 103.925Z" fill="white"/>
<path d="M291.217 103.514H291.408C291.53 103.514 291.629 103.415 291.629 103.293V103.101C291.629 102.978 291.53 102.879 291.408 102.879H291.217C291.094 102.879 290.996 102.978 290.996 103.101V103.293C290.996 103.415 291.094 103.514 291.217 103.514Z" fill="white"/>
<path d="M298.09 112.958C297.215 115.487 298.032 118.468 298.55 119.643C298.591 119.071 298.656 117.595 298.594 116.265C298.516 114.601 299.795 114.339 300.392 111.448C300.988 108.558 300.79 108.89 300.659 109.204C300.529 109.519 299.183 109.798 298.09 112.958Z" fill="#E78F68" fill-opacity="0.83"/>
<path d="M309.654 112.699C310.753 115.138 309.811 118.253 309.401 119.47C309.309 118.904 309.508 117.368 309.45 116.037C309.377 114.373 308.079 114.228 307.225 111.403C306.37 108.578 306.597 108.89 306.755 109.192C306.914 109.493 308.28 109.65 309.654 112.699Z" fill="#E78F68" fill-opacity="0.83"/>
<path d="M306.275 73.231C298.259 72.036 287.791 74.5436 283.559 75.9467C284.52 73.9778 286.853 72.9594 287.676 72.6878C288.5 72.4162 292.206 70.1758 295.363 69.0216C298.52 67.8674 300.99 67.6637 302.088 67.6637C303.186 67.6637 306.961 67.9353 307.098 67.9353C310.392 67.6637 314.784 68.8858 315.196 69.0216C315.526 69.1302 320.229 70.8773 322.539 71.7373C324.141 72.3484 327.673 73.8013 328.99 74.7246C330.637 75.8788 330.363 78.323 330.431 78.4588C330.486 78.5674 330.546 80.8124 330.569 81.9213L331.735 90.8154L333.726 103.444V104.801L333.108 113.356L332.147 119.602C332.101 119.942 331.859 121.313 331.255 124.083C330.5 127.546 329.814 128.496 329.333 130.126C328.949 131.429 327.526 133.611 326.863 134.539L324.392 137.119L320.961 140.378L324.049 135.082C325.261 132.683 327.686 127.763 327.686 127.274V119.331V104.122L328.304 94.2779C327.412 90.5891 325.435 82.7361 324.667 80.835C323.706 78.4588 316.294 74.7246 306.275 73.231Z" fill="black" fill-opacity="0.06"/>
</g>
<defs>
<linearGradient id="paint0_linear" x1="47.0244" y1="226.463" x2="47.0244" y2="196.138" gradientUnits="userSpaceOnUse">
<stop stop-color="#808080" stop-opacity="0.25"/>
<stop offset="0.53514" stop-color="#808080" stop-opacity="0.12"/>
<stop offset="1" stop-color="#808080" stop-opacity="0.1"/>
</linearGradient>
<linearGradient id="paint1_linear" x1="-88009.6" y1="306527" x2="-88009.6" y2="28282.7" gradientUnits="userSpaceOnUse">
<stop stop-color="#808080" stop-opacity="0.25"/>
<stop offset="0.53514" stop-color="#808080" stop-opacity="0.12"/>
<stop offset="1" stop-color="#808080" stop-opacity="0.1"/>
</linearGradient>
<linearGradient id="paint2_linear" x1="-879.188" y1="989.132" x2="-879.188" y2="984.658" gradientUnits="userSpaceOnUse">
<stop stop-color="#808080" stop-opacity="0.25"/>
<stop offset="0.53514" stop-color="#808080" stop-opacity="0.12"/>
<stop offset="1" stop-color="#808080" stop-opacity="0.1"/>
</linearGradient>
<linearGradient id="paint3_linear" x1="-73405.1" y1="26960.5" x2="-73405.1" y2="14537.1" gradientUnits="userSpaceOnUse">
<stop stop-color="#808080" stop-opacity="0.25"/>
<stop offset="0.53514" stop-color="#808080" stop-opacity="0.12"/>
<stop offset="1" stop-color="#808080" stop-opacity="0.1"/>
</linearGradient>
<linearGradient id="paint4_linear" x1="47.0244" y1="226.463" x2="47.0244" y2="196.138" gradientUnits="userSpaceOnUse">
<stop stop-color="#808080" stop-opacity="0.25"/>
<stop offset="0.53514" stop-color="#808080" stop-opacity="0.12"/>
<stop offset="1" stop-color="#808080" stop-opacity="0.1"/>
</linearGradient>
<linearGradient id="paint5_linear" x1="-88009.6" y1="306527" x2="-88009.6" y2="28282.7" gradientUnits="userSpaceOnUse">
<stop stop-color="#808080" stop-opacity="0.25"/>
<stop offset="0.53514" stop-color="#808080" stop-opacity="0.12"/>
<stop offset="1" stop-color="#808080" stop-opacity="0.1"/>
</linearGradient>
<linearGradient id="paint6_linear" x1="-879.188" y1="989.132" x2="-879.188" y2="984.658" gradientUnits="userSpaceOnUse">
<stop stop-color="#808080" stop-opacity="0.25"/>
<stop offset="0.53514" stop-color="#808080" stop-opacity="0.12"/>
<stop offset="1" stop-color="#808080" stop-opacity="0.1"/>
</linearGradient>
<linearGradient id="paint7_linear" x1="-73405.1" y1="26960.5" x2="-73405.1" y2="14537.1" gradientUnits="userSpaceOnUse">
<stop stop-color="#808080" stop-opacity="0.25"/>
<stop offset="0.53514" stop-color="#808080" stop-opacity="0.12"/>
<stop offset="1" stop-color="#808080" stop-opacity="0.1"/>
</linearGradient>
<clipPath id="clip0">
<rect x="271" y="42" width="70" height="107" fill="white"/>
</clipPath>
</defs>
</svg>
