<svg width="452" height="432" viewBox="0 0 452 432" fill="none" xmlns="http://www.w3.org/2000/svg">
<path fill-rule="evenodd" clip-rule="evenodd" d="M15.9962 120C15.9962 53.7258 69.722 0 135.996 0H397.996C409.042 0 417.996 8.95431 417.996 20V51H428.499C433.746 51 437.999 55.2533 437.999 60.5C437.999 65.7467 433.746 70 428.499 70H417.996V89H442.499C447.746 89 451.999 93.2533 451.999 98.5C451.999 103.747 447.746 108 442.499 108H417.996V251C417.996 317.274 364.27 371 297.996 371H35.9961C24.9505 371 15.9962 362.046 15.9962 351V120Z" fill="#0066FF" fill-opacity="0.07"/>
<rect x="402.999" y="70" width="30" height="19" rx="9.5" fill="#181818"/>
<path d="M362.355 359.153C362.355 381.638 375.723 389.489 392.21 389.489C392.594 389.489 392.976 389.485 393.356 389.475C394.119 389.458 394.877 389.425 395.624 389.371C410.506 388.319 422.067 380.063 422.067 359.153C422.067 337.515 394.42 310.21 392.335 308.183L392.331 308.181C392.252 308.102 392.21 308.063 392.21 308.063C392.21 308.063 362.355 336.667 362.355 359.153Z" fill="#3F3D56"/>
<path d="M393.3 386.049L382.379 370.792L393.327 387.724L393.356 389.475C394.119 389.458 394.877 389.425 395.624 389.371L394.447 366.876L394.456 366.702L394.435 366.669L394.325 364.544L405.299 347.569L394.292 362.95L394.265 363.401L393.375 346.404L402.77 328.865L393.26 343.419L392.335 308.183L392.331 308.063V308.181L392.484 335.967L383.132 324.951L392.524 338.36L392.771 353.578L384.037 338.974L392.808 355.819L392.945 364.278L380.267 343.95L392.993 367.231L393.3 386.049Z" fill="#F2F2F2"/>
<g opacity="0.7">
<path opacity="0.7" d="M37.0065 201.554V196.138H64.0819V221.183C64.0819 222.583 63.5256 223.926 62.5355 224.916C61.5454 225.907 60.2024 226.463 58.8022 226.463H42.2862C40.8859 226.463 39.543 225.907 38.5529 224.916C37.5627 223.926 37.0065 222.583 37.0065 221.183V215.633C35.1395 215.633 33.3489 214.891 32.0287 213.571C30.7085 212.251 29.9669 210.46 29.9669 208.593C29.9669 206.726 30.7085 204.936 32.0287 203.615C33.3489 202.295 35.1395 201.554 37.0065 201.554V201.554ZM37.0065 212.925V204.261C35.8575 204.261 34.7557 204.717 33.9433 205.53C33.1309 206.342 32.6744 207.444 32.6744 208.593C32.6744 209.742 33.1309 210.844 33.9433 211.656C34.7557 212.469 35.8575 212.925 37.0065 212.925V212.925Z" fill="url(#paint0_linear)"/>
</g>
<path d="M37.8776 202.401C39.1489 202.401 40.3915 202.778 41.4485 203.484C42.5055 204.191 43.3293 205.194 43.8158 206.369C44.3023 207.543 44.4296 208.836 44.1815 210.083C43.9335 211.329 43.3214 212.475 42.4225 213.373C41.5236 214.272 40.3783 214.885 39.1315 215.133C37.8847 215.381 36.5924 215.253 35.4179 214.767C34.2435 214.28 33.2396 213.456 32.5334 212.399C31.8271 211.342 31.4502 210.1 31.4502 208.829C31.4502 207.124 32.1273 205.489 33.3327 204.284C34.5381 203.078 36.173 202.401 37.8776 202.401V202.401ZM37.8776 212.784C38.6599 212.784 39.4246 212.552 40.0751 212.117C40.7256 211.683 41.2325 211.065 41.5319 210.342C41.8313 209.619 41.9096 208.824 41.757 208.057C41.6044 207.29 41.2276 206.585 40.6745 206.032C40.1213 205.479 39.4165 205.102 38.6493 204.949C37.882 204.797 37.0867 204.875 36.364 205.174C35.6412 205.474 35.0235 205.981 34.5888 206.631C34.1542 207.282 33.9222 208.046 33.9222 208.829C33.9222 209.878 34.339 210.884 35.0807 211.625C35.8225 212.367 36.8286 212.784 37.8776 212.784Z" fill="#0794F3"/>
<path opacity="0.1" d="M37.8776 202.401C39.1489 202.401 40.3915 202.778 41.4485 203.484C42.5055 204.191 43.3293 205.194 43.8158 206.369C44.3023 207.543 44.4296 208.836 44.1815 210.083C43.9335 211.329 43.3214 212.475 42.4225 213.373C41.5236 214.272 40.3783 214.885 39.1315 215.133C37.8847 215.381 36.5924 215.253 35.4179 214.767C34.2435 214.28 33.2396 213.456 32.5334 212.399C31.8271 211.342 31.4502 210.1 31.4502 208.829C31.4502 207.124 32.1273 205.489 33.3327 204.284C34.5381 203.078 36.173 202.401 37.8776 202.401V202.401ZM37.8776 212.784C38.6599 212.784 39.4246 212.552 40.0751 212.117C40.7256 211.683 41.2325 211.065 41.5319 210.342C41.8313 209.619 41.9096 208.824 41.757 208.057C41.6044 207.29 41.2276 206.585 40.6745 206.032C40.1213 205.479 39.4165 205.102 38.6493 204.949C37.882 204.797 37.0867 204.875 36.364 205.174C35.6412 205.474 35.0235 205.981 34.5888 206.631C34.1542 207.282 33.9222 208.046 33.9222 208.829C33.9222 209.878 34.339 210.884 35.0807 211.625C35.8225 212.367 36.8286 212.784 37.8776 212.784Z" fill="black"/>
<path d="M62.5986 197.457H37.8776V220.298C37.8776 221.584 38.3881 222.816 39.2969 223.725C40.2057 224.634 41.4383 225.144 42.7235 225.144H57.7527C59.0379 225.144 60.2705 224.634 61.1793 223.725C62.088 222.816 62.5986 221.584 62.5986 220.298V197.457Z" fill="#0794F3"/>
<path opacity="0.1" d="M42.3274 197.457V220.324C42.3274 221.602 42.8352 222.828 43.7393 223.733C44.6433 224.637 45.8694 225.144 47.1479 225.144H44.6758C43.3973 225.144 42.1712 224.637 41.2672 223.733C40.3631 222.828 39.8553 221.602 39.8553 220.324V197.457H42.3274Z" fill="black"/>
<path d="M57.7202 179.027C57.9317 179.033 58.1391 179.087 58.3278 179.182C58.5164 179.278 58.6817 179.414 58.8119 179.581C59.1362 180.169 58.5486 180.832 58.0124 181.236C57.0217 181.982 55.9775 182.715 55.3041 183.756C54.6307 184.798 54.4192 186.252 55.1553 187.25C56.1165 188.553 58.4096 188.834 58.6315 190.438C58.774 191.468 57.8837 192.347 56.9815 192.863C54.7547 194.139 51.8841 194.479 50.2712 196.475C49.6039 195.103 48.1115 194.31 46.6239 193.971C45.1363 193.633 43.5906 193.658 42.0823 193.428C41.836 193.423 41.5942 193.361 41.3765 193.245C41.1588 193.13 40.9713 192.965 40.8293 192.763C40.4077 191.908 41.6093 190.882 41.1946 190.023C40.8789 189.369 39.9516 189.42 39.2745 189.158C38.1718 188.731 37.7172 187.312 38.0301 186.172C38.3431 185.032 39.227 184.141 40.1566 183.411C42.6617 181.443 45.6739 180.285 48.7206 179.452C50.1376 179.065 51.801 178.458 53.2728 178.399C54.6936 178.342 56.314 178.786 57.7202 179.027Z" fill="#EEEEEE"/>
<path d="M231.229 230.983L282.919 392.017" stroke="#E0E0E0" stroke-width="8" stroke-miterlimit="10"/>
<g opacity="0.7">
<path opacity="0.7" d="M191.18 410.153C197.538 410.522 203.203 415.848 203.203 415.848L205.942 409.054L206.165 409.127C204.827 403.27 177.603 282.526 204.856 272.117C225.797 264.119 248.009 254.22 265.412 254.592V226.069H241.014V225.052H221.699C217.996 222.407 223.376 220.589 229.389 219.452C229.144 219.172 228.928 218.867 228.745 218.543L197.809 163.04C197.809 163.04 190.693 151.35 195.267 145.758C199.842 140.167 206.45 159.991 206.45 159.991L231.864 196.588C231.864 196.588 257.515 169.853 273.832 156.557C275.643 154.763 277.686 153.219 279.907 151.966C282.885 149.951 285.14 148.907 286.252 149.317C286.263 149.321 286.272 149.328 286.283 149.332C288.756 148.648 291.31 148.3 293.876 148.3H295.909V144.129C291.355 142.625 287.188 140.135 283.707 136.836C280.225 133.537 277.514 129.51 275.767 125.043C272.899 120.294 271.148 114.956 270.645 109.431C270.143 103.906 270.901 98.3393 272.864 93.1505C272.561 93.1147 272.269 93.0136 272.008 92.8542C271.088 92.2616 270.997 90.9653 271.086 89.8741C271.419 86.2118 272.64 82.686 274.643 79.6015C276.645 76.5169 279.369 73.9666 282.578 72.1709C285.153 70.7626 288.103 69.7924 290.002 67.5543C291.634 65.6312 292.319 62.9415 294.294 61.3723C296.64 59.5082 300.028 59.8287 302.907 60.6605C306.11 61.5873 309.145 63.0194 311.897 64.9028C315.011 67.0354 317.821 69.7751 321.405 70.9555C323.952 71.7943 326.715 71.7775 329.278 72.5655C331.245 73.1888 333.039 74.2638 334.516 75.7046C335.993 77.1453 337.113 78.9118 337.785 80.8627C338.438 82.9586 338.685 85.1596 338.513 87.348C340.072 89.9535 341.298 92.7439 342.164 95.6541C342.356 95.7577 342.549 95.859 342.739 95.9658L342.182 95.7152C344.126 102.278 344.19 109.254 342.368 115.851C340.546 122.448 336.909 128.402 331.872 133.036C327.892 138.217 322.446 142.083 316.241 144.129V149.175C320.668 150.13 324.891 151.859 328.716 154.284L328.721 154.277C328.721 154.277 329.046 154.478 329.601 154.852C329.657 154.889 329.712 154.926 329.768 154.964C333.529 157.517 346.133 166.844 345.707 176.924C345.724 177.311 345.721 177.7 345.7 178.09C346.388 181.003 346.737 183.985 346.738 186.978V260.124C346.748 268.207 344.032 276.056 339.029 282.404C349.636 284.781 356.396 288.377 356.396 292.401C356.343 292.738 356.343 293.081 356.396 293.417C356.396 300.576 335.004 306.379 308.617 306.379C305.426 306.379 302.31 306.293 299.294 306.132L269.478 330.269L317.258 407.021C317.258 407.021 333.015 419.22 320.816 423.286C308.617 427.353 283.71 430.402 283.71 430.402C283.71 430.402 279.644 423.286 285.235 420.236C290.826 417.187 298.451 418.712 298.451 418.712L297.434 412.612C297.434 412.612 214.582 341.451 231.864 317.053C235.171 312.385 238.477 307.569 241.812 302.828L228.769 304.017L225.801 415.725L225.43 415.604C226.175 417.799 231.445 434.362 219.764 431.559C207.26 428.558 184.509 417.975 184.509 417.975C184.509 417.975 184.822 409.784 191.18 410.153ZM241.014 217.936L265.412 210.853V189.98L238.894 218.13C240.198 217.999 241.014 217.936 241.014 217.936Z" fill="url(#paint1_linear)"/>
</g>
<path d="M306.279 144.998C286.515 144.998 270.494 128.977 270.494 109.213C270.494 89.4493 286.515 73.4276 306.279 73.4276C326.043 73.4276 342.065 89.4493 342.065 109.213C342.065 128.977 326.043 144.998 306.279 144.998Z" fill="black"/>
<path d="M265.524 191.221L238.214 220.211C237.639 220.822 236.928 221.288 236.139 221.573C235.35 221.857 234.505 221.951 233.673 221.848C232.84 221.744 232.044 221.446 231.349 220.978C230.653 220.509 230.078 219.883 229.67 219.151L199.42 164.879L207.869 161.897L232.72 197.682C232.72 197.682 279.374 149.056 285.901 151.46C292.429 153.864 265.524 191.221 265.524 191.221Z" fill="#0794F3"/>
<path d="M317.711 291.619L357.969 395.993" stroke="#BDBDBD" stroke-width="5" stroke-miterlimit="10"/>
<path d="M297.83 291.619L257.571 395.993" stroke="#BDBDBD" stroke-width="5" stroke-miterlimit="10"/>
<path d="M307.77 305.038C281.968 305.038 261.05 299.364 261.05 292.364C261.05 285.365 281.968 279.69 307.77 279.69C333.573 279.69 354.49 285.365 354.49 292.364C354.49 299.364 333.573 305.038 307.77 305.038Z" fill="#B84733"/>
<path d="M307.77 304.044C281.968 304.044 261.05 298.37 261.05 291.37C261.05 284.371 281.968 278.696 307.77 278.696C333.573 278.696 354.49 284.371 354.49 291.37C354.49 298.37 333.573 304.044 307.77 304.044Z" fill="#F55F44"/>
<path d="M327.429 314.55L283.349 328.134" stroke="#BDBDBD" stroke-width="5" stroke-miterlimit="10"/>
<path d="M288.111 314.55L332.192 328.134" stroke="#BDBDBD" stroke-width="5" stroke-miterlimit="10"/>
<path d="M307.226 150.465H293.357C285.975 150.465 278.895 153.398 273.676 158.618C268.456 163.837 265.524 170.917 265.524 178.299V251.857H345.047V188.286C345.047 178.255 341.062 168.636 333.969 161.543C326.877 154.45 317.257 150.465 307.226 150.465V150.465Z" fill="#0794F3"/>
<path d="M345.047 251.857H265.524V295.098H309.758C319.117 295.098 328.093 291.38 334.711 284.762C341.329 278.145 345.047 269.169 345.047 259.81V251.857V251.857Z" fill="#39447A"/>
<path opacity="0.05" d="M343.973 180.306L295.345 226.51H241.667V219.551L287.889 206.132L327.429 157.304C327.429 157.304 345.384 168.397 343.973 180.306Z" fill="black"/>
<path d="M343.973 179.312L295.345 225.515H241.667V218.557L287.889 205.138L327.429 156.31C327.429 156.31 345.384 167.403 343.973 179.312Z" fill="#0794F3"/>
<path d="M241.667 218.557C241.667 218.557 215.822 220.545 222.78 225.515H241.667V218.557Z" fill="#FDA57D"/>
<path d="M207.869 161.897C207.869 161.897 201.408 142.513 196.935 147.98C192.462 153.448 199.42 164.879 199.42 164.879L207.869 161.897Z" fill="#FDA57D"/>
<path opacity="0.05" d="M345.047 251.857V254.177L265.524 254.342V251.857H345.047Z" fill="black"/>
<path d="M283.187 297.854L229.694 302.729L226.792 411.96L207.641 405.725C207.641 405.725 179 281.968 206.311 271.536C233.622 261.105 263.144 247.369 280.77 258.563C298.396 269.758 283.187 297.854 283.187 297.854Z" fill="#39447A"/>
<path opacity="0.1" d="M279.937 264.283C279.937 264.283 250.613 279.193 246.637 296.092Z" fill="black"/>
<path d="M311.249 294.601L269.5 328.398L316.219 403.448L296.836 408.915C296.836 408.915 215.822 339.333 232.72 315.476C249.619 291.619 266.518 263.786 287.392 263.289C308.267 262.792 311.249 294.601 311.249 294.601Z" fill="#39447A"/>
<path opacity="0.05" d="M245.643 184.76L235.205 202.652L232.72 197.682L245.643 184.76Z" fill="black"/>
<path d="M316.219 403.448C316.219 403.448 331.627 415.377 319.699 419.353C307.77 423.329 283.416 426.311 283.416 426.311C283.416 426.311 279.44 419.353 284.907 416.371C290.375 413.389 297.83 414.88 297.83 414.88L296.836 408.915L316.219 403.448Z" fill="#333333"/>
<path d="M226.347 411.607C226.347 411.607 233.115 430.376 220.889 427.442C208.662 424.508 186.416 414.159 186.416 414.159C186.416 414.159 186.721 406.151 192.938 406.511C199.155 406.872 204.694 412.08 204.694 412.08L207.372 405.436L226.347 411.607Z" fill="#333333"/>
<path d="M305.285 133.07H305.285C310.775 133.07 315.225 137.52 315.225 143.01V152.951C315.225 158.441 310.775 162.891 305.285 162.891H305.285C299.795 162.891 295.345 158.441 295.345 152.951V143.01C295.345 137.52 299.795 133.07 305.285 133.07Z" fill="#FDA57D"/>
<path opacity="0.05" d="M305.285 134.064C307.921 134.064 310.45 135.111 312.314 136.975C314.178 138.84 315.225 141.368 315.225 144.004V147.382C308.769 149.506 301.801 149.506 295.345 147.382V144.004C295.345 141.368 296.392 138.84 298.256 136.975C300.12 135.111 302.649 134.064 305.285 134.064Z" fill="black"/>
<path d="M305.285 147.98C287.717 147.98 273.476 133.739 273.476 116.171C273.476 98.6034 287.717 84.3619 305.285 84.3619C322.853 84.3619 337.094 98.6034 337.094 116.171C337.094 133.739 322.853 147.98 305.285 147.98Z" fill="#FDA57D"/>
<path opacity="0.05" d="M337.094 114.728C337.094 114.728 329.142 116.777 324.669 107.739C320.196 98.7006 316.717 93.7707 298.327 99.1115C279.937 104.452 276.238 105.104 275.354 100.054C274.75 96.6024 281.289 88.2199 285.491 83.257C287.541 80.836 290.886 79.3917 294.461 79.3917H315.225L327.651 85.1433L337.094 93.3599L339.082 104.452L337.094 114.728Z" fill="black"/>
<path d="M337.094 113.734C337.094 113.734 329.142 115.783 324.669 106.745C320.196 97.7066 316.717 92.7767 298.327 98.1174C279.937 103.458 276.238 104.11 275.354 99.0595C274.75 95.6084 281.289 87.2259 285.491 82.263C287.541 79.8419 290.886 78.3977 294.461 78.3977H315.225L327.651 84.1493L337.094 92.3659L339.082 103.458L337.094 113.734Z" fill="black"/>
<path d="M333.864 120.147C332.079 120.147 330.633 117.254 330.633 113.686C330.633 110.118 332.079 107.225 333.864 107.225C335.648 107.225 337.094 110.118 337.094 113.686C337.094 117.254 335.648 120.147 333.864 120.147Z" fill="#FDA57D"/>
<path d="M336.173 97.0604C336.91 92.8997 337.634 88.5306 336.292 84.5239C335.635 82.6163 334.54 80.889 333.095 79.4802C331.651 78.0714 329.897 77.0202 327.973 76.4107C325.467 75.6402 322.766 75.6566 320.275 74.8365C316.77 73.6822 314.023 71.0033 310.978 68.918C308.287 67.0764 305.319 65.676 302.187 64.7697C299.373 63.9563 296.059 63.643 293.765 65.4658C291.834 67.0001 291.164 69.6302 289.568 71.5107C287.711 73.6991 284.827 74.6478 282.309 76.0249C279.171 77.7807 276.508 80.2745 274.55 83.2906C272.592 86.3067 271.398 89.7544 271.072 93.3354C270.985 94.4024 271.074 95.67 271.974 96.2494C272.533 96.5338 273.163 96.6488 273.787 96.5803C286.5 96.3986 299.228 96.2161 311.889 95.0491C315.825 94.6863 319.768 94.2279 323.718 94.3775C329.831 94.6159 335.8 96.3001 341.136 99.2921" fill="black"/>
<path d="M370.294 380.71H414.288C423.288 380.71 430.583 388.005 430.583 397.004V397.004C430.583 406.004 423.288 413.299 414.288 413.299H370.294C361.295 413.299 353.999 406.004 353.999 397.004C353.999 388.005 361.295 380.71 370.294 380.71Z" fill="#0794F3"/>
<path d="M165.291 264.366C165.098 264.359 164.915 264.278 164.781 264.138C164.646 263.999 164.571 263.814 164.571 263.62C164.571 263.427 164.646 263.241 164.781 263.102C164.915 262.963 165.098 262.881 165.291 262.875C165.485 262.881 165.668 262.963 165.802 263.102C165.936 263.241 166.012 263.427 166.012 263.62C166.012 263.814 165.936 263.999 165.802 264.138C165.668 264.278 165.485 264.359 165.291 264.366Z" fill="url(#paint2_linear)"/>
<path d="M55.8997 230.983L4.20967 414.925" stroke="#E0E0E0" stroke-width="8" stroke-miterlimit="10"/>
<path d="M3.99997 225.596H283.129V236.473H3.99997V225.596Z" fill="#E0E0E0"/>
<path d="M171.835 223.03H211.1C212.884 223.03 214.331 224.477 214.331 226.261V226.261C214.331 228.045 212.884 229.492 211.1 229.492H171.835C170.051 229.492 168.605 228.045 168.605 226.261C168.605 224.477 170.051 223.03 171.835 223.03Z" fill="#535461"/>
<g opacity="0.7">
<path opacity="0.7" d="M86.8751 150.993H172.472C180.218 150.993 186.498 157.272 186.498 165.018V215.546C186.498 223.293 180.218 229.572 172.472 229.572H86.8751C79.1289 229.572 72.8494 223.293 72.8494 215.546V165.018C72.8494 157.272 79.1289 150.993 86.8751 150.993Z" fill="url(#paint3_linear)"/>
</g>
<path d="M90.1501 152.443H171.134C178.5 152.443 184.471 158.414 184.471 165.78V216.235C184.471 223.601 178.5 229.572 171.134 229.572H90.1501C82.784 229.572 76.8126 223.601 76.8126 216.235V165.78C76.8126 158.414 82.784 152.443 90.1501 152.443Z" fill="#3E3F49"/>
<path d="M88.6591 152.443H169.643C177.009 152.443 182.98 158.414 182.98 165.78V216.235C182.98 223.601 177.009 229.572 169.643 229.572H88.6591C81.293 229.572 75.3215 223.601 75.3215 216.235V165.78C75.3215 158.414 81.293 152.443 88.6591 152.443Z" fill="#535461"/>
<path d="M124.122 193.955C122.2 193.955 120.642 192.397 120.642 190.476C120.642 188.554 122.2 186.996 124.122 186.996C126.043 186.996 127.601 188.554 127.601 190.476C127.601 192.397 126.043 193.955 124.122 193.955Z" fill="#E0E0E0"/>
<defs>
<linearGradient id="paint0_linear" x1="47.0244" y1="226.463" x2="47.0244" y2="196.138" gradientUnits="userSpaceOnUse">
<stop stop-color="#808080" stop-opacity="0.25"/>
<stop offset="0.53514" stop-color="#808080" stop-opacity="0.12"/>
<stop offset="1" stop-color="#808080" stop-opacity="0.1"/>
</linearGradient>
<linearGradient id="paint1_linear" x1="-88009.6" y1="306527" x2="-88009.6" y2="28282.7" gradientUnits="userSpaceOnUse">
<stop stop-color="#808080" stop-opacity="0.25"/>
<stop offset="0.53514" stop-color="#808080" stop-opacity="0.12"/>
<stop offset="1" stop-color="#808080" stop-opacity="0.1"/>
</linearGradient>
<linearGradient id="paint2_linear" x1="-879.188" y1="989.132" x2="-879.188" y2="984.658" gradientUnits="userSpaceOnUse">
<stop stop-color="#808080" stop-opacity="0.25"/>
<stop offset="0.53514" stop-color="#808080" stop-opacity="0.12"/>
<stop offset="1" stop-color="#808080" stop-opacity="0.1"/>
</linearGradient>
<linearGradient id="paint3_linear" x1="-73405.1" y1="26960.5" x2="-73405.1" y2="14537.1" gradientUnits="userSpaceOnUse">
<stop stop-color="#808080" stop-opacity="0.25"/>
<stop offset="0.53514" stop-color="#808080" stop-opacity="0.12"/>
<stop offset="1" stop-color="#808080" stop-opacity="0.1"/>
</linearGradient>
</defs>
</svg>
