<svg width="161" height="868" viewBox="0 0 161 868" fill="none" xmlns="http://www.w3.org/2000/svg">
<line x1="81" y1="158" x2="81" y2="354" stroke="white" stroke-width="2"/>
<line x1="81" y1="510" x2="81" y2="710" stroke="white" stroke-width="2"/>
<circle cx="80" cy="80" r="60" fill="white" fill-opacity="0.82"/>
<path d="M57.2235 85.568L61.4095 81.616C63.9575 79.25 64.4515 77.638 64.4515 75.87C64.4515 72.568 61.7475 70.488 57.6915 70.488C54.4155 70.488 51.8675 71.814 50.4635 73.868L53.5315 75.844C54.4155 74.622 55.7415 74.024 57.3015 74.024C59.2255 74.024 60.2135 74.856 60.2135 76.286C60.2135 77.17 59.9275 78.106 58.3155 79.64L51.2955 86.27V89H65.0495V85.568H57.2235ZM74.5367 89.312C79.0347 89.312 82.3367 85.906 82.3367 79.9C82.3367 73.894 79.0347 70.488 74.5367 70.488C70.0647 70.488 66.7367 73.894 66.7367 79.9C66.7367 85.906 70.0647 89.312 74.5367 89.312ZM74.5367 85.75C72.4567 85.75 71.0007 84.034 71.0007 79.9C71.0007 75.766 72.4567 74.05 74.5367 74.05C76.6427 74.05 78.0987 75.766 78.0987 79.9C78.0987 84.034 76.6427 85.75 74.5367 85.75ZM83.3988 70.8V74.18H87.0388V89H91.2508V70.8H83.3988ZM106.866 79.432C108.218 78.6 108.998 77.326 108.998 75.688C108.998 72.49 106.138 70.488 101.952 70.488C97.8184 70.488 94.9584 72.49 94.9584 75.688C94.9584 77.326 95.7124 78.6 97.0644 79.432C95.3224 80.316 94.3084 81.772 94.3084 83.722C94.3084 87.154 97.3504 89.312 101.952 89.312C106.58 89.312 109.648 87.154 109.648 83.722C109.648 81.772 108.634 80.316 106.866 79.432ZM101.952 73.582C103.668 73.582 104.812 74.44 104.812 75.87C104.812 77.248 103.694 78.106 101.952 78.106C100.236 78.106 99.1444 77.248 99.1444 75.87C99.1444 74.44 100.262 73.582 101.952 73.582ZM101.952 86.218C99.8724 86.218 98.5724 85.204 98.5724 83.592C98.5724 81.98 99.8724 80.992 101.952 80.992C104.058 80.992 105.384 81.98 105.384 83.592C105.384 85.204 104.058 86.218 101.952 86.218Z" fill="#171A1C"/>
<path d="M80 159C36.3695 159 1 123.63 1 80C1 36.3695 36.3695 1 80 1" stroke="white" stroke-width="2"/>
<path d="M81 511C124.63 511 160 475.63 160 432C160 388.37 124.63 353 81 353" stroke="white" stroke-width="2"/>
<path d="M80 867C36.3695 867 1 831.63 1 788C1 744.37 36.3695 709 80 709" stroke="white" stroke-width="2"/>
<circle cx="80" cy="431" r="60" fill="white" fill-opacity="0.82"/>
<path d="M57.0282 436.568L61.2142 432.616C63.7622 430.25 64.2562 428.638 64.2562 426.87C64.2562 423.568 61.5522 421.488 57.4962 421.488C54.2202 421.488 51.6722 422.814 50.2682 424.868L53.3362 426.844C54.2202 425.622 55.5462 425.024 57.1062 425.024C59.0302 425.024 60.0182 425.856 60.0182 427.286C60.0182 428.17 59.7322 429.106 58.1202 430.64L51.1002 437.27V440H64.8542V436.568H57.0282ZM74.3413 440.312C78.8393 440.312 82.1413 436.906 82.1413 430.9C82.1413 424.894 78.8393 421.488 74.3413 421.488C69.8693 421.488 66.5413 424.894 66.5413 430.9C66.5413 436.906 69.8693 440.312 74.3413 440.312ZM74.3413 436.75C72.2613 436.75 70.8053 435.034 70.8053 430.9C70.8053 426.766 72.2613 425.05 74.3413 425.05C76.4473 425.05 77.9033 426.766 77.9033 430.9C77.9033 435.034 76.4473 436.75 74.3413 436.75ZM83.2035 421.8V425.18H86.8435V440H91.0555V421.8H83.2035ZM100.613 421.488C96.7651 421.488 93.7231 423.828 93.7231 427.546C93.7231 430.978 96.4791 433.214 99.9891 433.214C101.887 433.214 103.447 432.642 104.513 431.576C104.383 435.086 102.407 436.88 99.3911 436.88C98.1431 436.88 96.9731 436.646 95.9851 435.97L94.4251 439.064C95.6991 439.87 97.5451 440.312 99.4691 440.312C104.981 440.312 108.751 436.802 108.751 430.51C108.751 424.634 105.657 421.488 100.613 421.488ZM100.925 430.068C99.0531 430.068 97.8311 429.002 97.8311 427.338C97.8311 425.674 99.0791 424.634 100.873 424.634C102.875 424.634 104.045 425.778 104.045 427.338C104.045 428.924 102.771 430.068 100.925 430.068Z" fill="#171A1C"/>
<circle cx="80" cy="789" r="60" fill="white" fill-opacity="0.82"/>
<path d="M60.053 779.488C57.661 779.488 55.737 780.32 54.489 782.01V779.8H50.407V798H54.619V787.756C54.619 784.558 56.413 783.076 58.857 783.076C61.223 783.076 62.731 784.48 62.731 787.47V798H66.943V787.34C66.943 782.27 64.369 779.488 60.053 779.488ZM77.4704 798.208C81.9164 798.208 85.1404 795.218 85.1404 791.006C85.1404 786.794 81.9164 783.804 77.4704 783.804C73.0244 783.804 69.7744 786.794 69.7744 791.006C69.7744 795.218 73.0244 798.208 77.4704 798.208ZM77.4704 794.88C75.4424 794.88 73.8824 793.424 73.8824 791.006C73.8824 788.588 75.4424 787.132 77.4704 787.132C79.4984 787.132 81.0324 788.588 81.0324 791.006C81.0324 793.424 79.4984 794.88 77.4704 794.88ZM105.921 784.012V791.422C105.921 793.736 105.167 794.802 103.451 794.802C101.735 794.802 100.903 793.736 100.903 791.422V784.012H96.8475V791.422C96.8475 793.736 96.0155 794.802 94.2995 794.802C92.5835 794.802 91.8295 793.736 91.8295 791.422V784.012H87.7735V791.734C87.7735 795.842 90.0355 798.208 94.2475 798.208C96.2755 798.208 97.8095 797.636 98.8755 796.232C99.9675 797.688 101.553 798.208 103.477 798.208C107.663 798.208 109.977 795.842 109.977 791.734V784.012H105.921Z" fill="#171A1C"/>
</svg>
