<?xml version="1.0" encoding="UTF-8"?>
<svg width="128px" height="210px" viewBox="0 0 128 210" version="1.1" xmlns="http://www.w3.org/2000/svg" xmlns:xlink="http://www.w3.org/1999/xlink">
    <title>Combined Shape</title>
    <g id="Archive" stroke="none" stroke-width="1" fill="none" fill-rule="evenodd">
        <path d="M126.329371,41.7376355 L126.330182,141.423681 L126.333459,141.423681 L126.334129,147.222665 C126.334129,181.89363 98.2277585,210 63.5567938,210 C29.2325387,210 1.34224271,182.452947 0.787869211,148.260803 L0.779458841,147.222665 L0.779458841,141.423681 L29.8394588,141.423681 L29.8402962,147.222665 C29.8402962,165.316174 44.0923991,180.080927 61.9827539,180.903071 L62.5259886,180.923706 L63.5567938,180.939163 C81.9916901,180.939163 96.971031,166.144171 97.2687743,147.780229 L97.2732914,147.222665 L97.2714588,141.423681 L97.2693446,141.423681 L97.2683708,59.8966355 L126.329371,41.7376355 Z M112.541147,0 C120.567786,0 127.074663,6.50687687 127.074663,14.5335163 C127.074663,19.9705738 124.089054,24.710305 119.667865,27.2026807 L29.8032321,82.221 L29.8040694,127.407603 L0.743232102,127.407603 L0.743232102,21.5431238 C0.743232102,13.5181951 7.24872213,7.01270511 15.2736508,7.01270511 C23.2985794,7.01270511 29.8040694,13.5181951 29.8040694,21.5431238 L29.8032321,48.158 L104.505619,2.42158071 C106.72548,0.945888909 109.374272,0.0641884937 112.225106,0.00336824977 Z" id="Combined-Shape" fill="#FFFFFF"></path>
    </g>
</svg>