<?xml version="1.0" encoding="UTF-8"?>
<svg width="285px" height="435px" viewBox="0 0 285 435" version="1.1" xmlns="http://www.w3.org/2000/svg" xmlns:xlink="http://www.w3.org/1999/xlink">
    <title>Asset 1</title>
    <defs>
        <path d="M0,12.41 C0,12.41 7.64063943,0.35 24.5806394,-0.000144699439 C40.1421206,0.30090185 46.94,10.11 48.71,11.67 C50.48,13.23 50.29,14.14 48.71,14.49 C47.13,14.84 33.18,22.46 24.18,21.55 C15.18,20.64 4.94,13.29 0,12.41 Z" id="path-1"></path>
        <path d="M26.6809027,0.55383735 C10.9138395,0.334358871 3.03090272,9.4 1.26090272,10.99 C-0.509097275,12.58 -0.329097275,13.46 1.26090272,13.81 C2.85090272,14.16 16.7909027,21.76 25.7909027,20.87 C34.5554646,20.1595259 42.9393015,16.9800477 49.9709027,11.7 C49.9709027,11.7 43.6209027,0.90383735 26.6809027,0.55383735 Z" id="path-3"></path>
    </defs>
    <g id="Page-1" stroke="none" stroke-width="1" fill="none" fill-rule="evenodd">
        <g id="Asset-1">
            <path d="M31.83,212.94 C31.83,212.94 30.83,136.47 55.56,120 C80.29,103.53 135.32,97.06 135.32,97.06 C135.32,97.06 190.1,105.65 202.93,114.59 C215.76,123.53 232.4,117.3 241.93,142.24 C251.46,167.18 254.75,244.94 254.75,244.94 C254.75,244.94 252.85,348.94 225.29,377.65 C197.73,406.36 169.9,434.12 146,433.77 C122.1,433.42 109.47,435.71 100.2,429.71 C90.93,423.71 54.2,384.89 43.52,352.59 C32.84,320.29 28.52,275.3 28.73,260.3 C28.94,245.3 31.83,212.94 31.83,212.94 Z" id="Path" fill="#F9BF97" fill-rule="nonzero"></path>
            <path d="M32.77,212.77 C32.77,212.77 31.77,136.3 56.5,119.83 C81.23,103.36 136.26,96.89 136.26,96.89 C136.26,96.89 191.04,105.47 203.87,114.42 C216.7,123.37 233.35,117.12 242.87,142.06 C252.39,167 255.69,244.77 255.69,244.77 C255.69,244.77 253.79,348.77 226.23,377.47 C198.67,406.17 170.84,433.94 147,433.59 C123.16,433.24 110.47,435.53 101.2,429.53 C91.93,423.53 55.2,384.71 44.52,352.41 C33.84,320.11 29.52,275.12 29.73,260.12 C29.94,245.12 32.77,212.77 32.77,212.77 Z" id="Path" fill="#FABB90" fill-rule="nonzero" opacity="0.9"></path>
            <path d="M39.78,232.75 C40.1968031,231.074711 40.807597,229.453758 41.6,227.92 C42.4411966,226.369768 43.4470032,224.914701 44.6,223.58 C47.034114,220.779478 50.1775195,218.686177 53.7,217.52 C54.5931801,217.216312 55.5095166,216.985556 56.44,216.83 C57.3636839,216.647849 58.2995657,216.534206 59.24,216.49 C59.7,216.49 60.24,216.41 60.63,216.39 L61.89,216.39 C62.73,216.39 63.58,216.39 64.42,216.39 C67.78,216.39 71.14,216.54 74.5,216.74 C77.86,216.94 81.24,217.27 84.63,217.66 C86.31,217.94 88,218.15 89.69,218.51 C91.38,218.87 93.04,219.28 94.69,219.71 C96.34,220.14 98.04,220.62 99.69,221.16 L102.2,222.01 C103.04,222.31 103.85,222.7 104.67,223.06 C105.487456,223.452528 106.279061,223.896762 107.04,224.39 C107.825335,224.878103 108.573991,225.422884 109.28,226.02 L110.34,226.93 C110.749072,227.215787 111.090436,227.587874 111.34,228.02 C111.615938,228.584377 111.766062,229.201932 111.78,229.83 C111.818692,230.753967 111.696888,231.677648 111.42,232.56 C111.319829,232.904742 111.104535,233.204742 110.81,233.41 L110.81,233.41 C110.041745,233.954015 109.224952,234.426014 108.37,234.82 C107.865995,235.070539 107.320289,235.226455 106.76,235.28 C106.36959,235.292473 105.980103,235.234897 105.61,235.11 L104.53,234.81 C103.82,234.62 103.12,234.37 102.4,234.19 L100.3,233.46 C97.57,232.33 94.7,231.19 91.75,230.26 C85.75,228.56 79.65,226.76 73.37,225.43 C70.23,224.76 67.06,224.15 63.88,223.65 C63.08,223.5 62.29,223.38 61.49,223.25 L60.29,223.05 L59.22,222.94 C58.5218629,222.834009 57.8160206,222.787176 57.11,222.8 C56.4048148,222.776227 55.6988904,222.813028 55,222.91 C52.0977593,223.231942 49.3350511,224.326665 47,226.08 C45.7762695,227.021184 44.6535821,228.086899 43.65,229.26 C42.5964767,230.443904 41.6837202,231.745925 40.93,233.14 L40.93,233.14 C40.786282,233.353542 40.5136832,233.438846 40.2738749,233.345321 C40.0340666,233.251795 39.8911977,233.004459 39.93,232.75 L39.78,232.75 Z" id="Path" fill="#424242" fill-rule="nonzero"></path>
            <path d="M31.34,215.15 C30.28,213.03 21.05,191.15 21.05,175.62 L21.05,165.62 C21.05,165.62 6.93,167.62 3.05,149.74 C-0.83,131.86 -1.19,110.92 3.05,105.97 C7.29,101.02 7.16,96.09 11.52,95.27 C15.88,94.45 16.35,89.97 16.17,87.74 C15.99,85.51 20.46,66.92 22.81,66.92 C25.16,66.92 28.46,38.33 56.22,25.62 C83.98,12.91 102.34,6.8 108.46,3 C114.58,-0.8 123.52,1.62 136.22,3 C148.92,4.38 182.81,1.12 203.52,11.47 C224.23,21.82 255.75,42.53 264.22,57.12 C272.69,71.71 290.57,78.77 282.57,104.65 C274.57,130.53 272.87,129.89 272.87,129.89 C272.87,129.89 276.4,145.59 271.63,159.36 C266.86,173.13 263.52,200.65 263.87,206.65 C264.22,212.65 260,231 260,231 C260,231 256.47,251.65 256.82,256.77 C257.17,261.89 251.7,226.41 249.06,209.65 C246.42,192.89 241.29,157.06 242,148.59 C242.71,140.12 239,132.94 230.17,129.12 C221.34,125.3 181.82,110.47 181.82,110.47 C181.82,110.47 166.47,105 150.06,105.36 C133.65,105.72 117.58,99.53 87.76,114.89 C57.94,130.25 50.53,128.83 45.23,153.71 C39.93,178.59 31.34,215.15 31.34,215.15 Z" id="Path" fill="#000000" fill-rule="nonzero"></path>
            <path d="M231.64,233.1 C230.882618,231.708191 229.970144,230.406574 228.92,229.22 C227.915414,228.044345 226.789132,226.978399 225.56,226.04 C223.224949,224.286665 220.462241,223.191942 217.56,222.87 C216.86111,222.773028 216.155185,222.736227 215.45,222.76 C214.743979,222.747176 214.038137,222.794009 213.34,222.9 L212.27,223.01 L211.07,223.21 C210.27,223.34 209.48,223.46 208.68,223.61 C205.5,224.11 202.33,224.72 199.19,225.39 C192.9,226.72 186.79,228.54 180.81,230.22 C177.86,231.14 174.98,232.22 172.23,233.34 L170.12,234.05 L167.97,234.67 L166.9,234.97 C166.525702,235.092711 166.133885,235.153511 165.74,235.150144 C165.185986,235.0993 164.644791,234.953854 164.14,234.72 C163.301912,234.341345 162.498808,233.889599 161.74,233.37 L161.74,233.37 C161.432857,233.162341 161.206797,232.85504 161.1,232.5 C160.810909,231.59542 160.672398,230.649489 160.69,229.7 C160.708662,229.064059 160.854888,228.438347 161.12,227.86 C161.363629,227.423553 161.706112,227.050247 162.12,226.77 L163.18,225.86 C163.891425,225.268347 164.643249,224.727034 165.43,224.24 C166.197053,223.751354 166.995446,223.313741 167.82,222.93 C168.64,222.57 169.45,222.19 170.3,221.93 L172.81,221.11 C174.49,220.57 176.17,220.11 177.81,219.68 C179.45,219.25 181.16,218.83 182.81,218.49 C184.46,218.15 186.18,217.92 187.86,217.64 C191.25,217.24 194.62,216.9 197.98,216.71 C201.34,216.52 204.71,216.37 208.07,216.36 C208.91,216.36 209.76,216.36 210.6,216.36 L211.86,216.36 C212.29,216.36 212.79,216.43 213.25,216.46 C214.187178,216.503596 215.119781,216.617246 216.04,216.8 C216.974011,216.954327 217.893769,217.185103 218.79,217.49 C222.31248,218.656177 225.455886,220.749478 227.89,223.55 C229.042997,224.884701 230.048803,226.339768 230.89,227.89 C231.67817,229.425638 232.288776,231.046092 232.71,232.72 C232.748802,232.974459 232.605933,233.221795 232.366125,233.315321 C232.126317,233.408846 231.853718,233.323542 231.71,233.11 L231.64,233.1 Z" id="Path" fill="#424242" fill-rule="nonzero"></path>
            <g id="Group-3" transform="translate(54.940000, 242.450000)">
                <mask id="mask-2" fill="white">
                    <use xlink:href="#path-1"></use>
                </mask>
                <use id="Path" fill="#FDFDFD" fill-rule="nonzero" xlink:href="#path-1"></use>
                <ellipse id="Oval" fill="#333333" fill-rule="nonzero" mask="url(#mask-2)" cx="27.57" cy="6.39" rx="10.9" ry="10.39"></ellipse>
            </g>
            <g id="Group-2" transform="translate(166.299097, 242.070000)">
                <mask id="mask-4" fill="white">
                    <use xlink:href="#path-3"></use>
                </mask>
                <use id="Path" fill="#F4F4F4" fill-rule="nonzero" xlink:href="#path-3"></use>
                <ellipse id="Oval" fill="#333333" fill-rule="nonzero" mask="url(#mask-4)" cx="26.2209027" cy="6.39" rx="10.9" ry="10.39"></ellipse>
            </g>
            <path d="M107.94,326.56 C108.102536,325.647966 108.522356,324.801386 109.15,324.12 C109.784377,323.399882 110.598892,322.861473 111.51,322.56 C112.522647,322.232982 113.623861,322.32295 114.57,322.81 C115.383688,323.311354 116.068646,323.996312 116.57,324.81 C117.05362,325.469589 117.570976,326.103767 118.12,326.71 C118.64,327.33 119.12,327.96 119.65,328.61 L121.14,330.52 C121.613747,331.178748 122.191252,331.756253 122.85,332.23 C122.180938,331.767511 121.584408,331.208053 121.08,330.57 L119.48,328.74 C118.94,328.14 118.39,327.55 117.82,326.98 C117.273624,326.383239 116.670818,325.840714 116.02,325.36 C115.412171,324.955848 114.688388,324.762605 113.96,324.81 C113.375857,324.866073 112.797268,324.969751 112.23,325.12 C111.05,325.4 109.74,326 107.94,326.56 Z" id="Path" fill="#424242" fill-rule="nonzero"></path>
            <path d="M159.23,328.68 C157.3,328.02 155.64,327.26 154.11,326.92 C153.758572,326.836132 153.40059,326.782602 153.04,326.76 C152.7,326.69 152.39,326.64 152.04,326.55 C151.175912,326.395205 150.295754,326.720481 149.74,327.4 C148.539379,328.886616 147.091521,330.155184 145.46,331.15 C143.854199,332.149893 142.126769,332.939671 140.32,333.5 C142.100091,332.915993 143.78474,332.073668 145.32,331 C146.871727,329.944635 148.225695,328.624516 149.32,327.1 C149.847586,326.124437 150.560993,325.261554 151.42,324.56 C151.697231,324.408571 151.98862,324.284647 152.29,324.19 C152.872544,324.029979 153.487456,324.029979 154.07,324.19 C154.351632,324.243183 154.6266,324.327015 154.89,324.44 C155.885997,324.817571 156.78959,325.404054 157.54,326.16 C158.271796,326.873878 158.847291,327.732012 159.23,328.68 L159.23,328.68 Z" id="Path" fill="#424242" fill-rule="nonzero"></path>
            <path d="M107.94,298.14 C105.526544,299.87691 103.292172,301.84999 101.27,304.03 C99.2601631,306.103226 97.754614,308.611334 96.87,311.36 L96.71,311.86 L96.63,312.38 L96.46,313.38 C96.46,314.1 96.37,314.82 96.46,315.53 C96.4775086,316.968264 96.7031833,318.396414 97.13,319.77 C98.0198772,322.581562 99.6626038,325.095799 101.88,327.04 C100.570962,326.259444 99.3931693,325.277388 98.39,324.13 C97.3825745,322.938083 96.5815306,321.58611 96.02,320.13 C95.4431078,318.677298 95.1053988,317.140722 95.02,315.58 C94.9750069,314.800649 94.9750069,314.019351 95.02,313.24 C95.02,312.85 95.13,312.46 95.19,312.06 L95.28,311.47 L95.45,310.9 L95.81,309.76 L96.29,308.69 C96.447138,308.342915 96.6310255,308.008574 96.84,307.69 C97.04,307.36 97.22,307.01 97.45,306.69 C98.3302672,305.425812 99.3353138,304.253257 100.45,303.19 C102.65532,301.110417 105.185236,299.404666 107.94,298.14 L107.94,298.14 Z" id="Path" fill="#424242" fill-rule="nonzero"></path>
            <path d="M164.286605,302 C166.205712,303.580556 167.871659,305.445473 169.226605,307.53 C170.669998,309.63172 171.645312,312.01885 172.086605,314.53 C172.284911,315.823877 172.268016,317.141632 172.036605,318.43 C171.779835,319.668834 171.397874,320.878377 170.896605,322.04 C170.384476,323.207124 169.692766,324.286866 168.846605,325.24 C168.012801,326.193304 166.923037,326.887422 165.706605,327.24 C167.705678,325.912793 169.16087,323.911016 169.806605,321.6 C170.173595,320.477027 170.451128,319.326769 170.636605,318.16 C170.811605,317.030069 170.811605,315.879931 170.636605,314.75 C170.22851,312.421793 169.419869,310.18196 168.246605,308.13 C167.077441,305.99308 165.753927,303.944309 164.286605,302 L164.286605,302 Z" id="Path" fill="#424242" fill-rule="nonzero"></path>
            <circle id="Oval" stroke="#424242" cx="149.03" cy="313.31" r="1"></circle>
            <path d="M75.76,370.8 C75.76,370.8 69.76,361.62 71.18,352.09 C72.6,342.56 80.35,344.15 86.88,343.27 C93.41,342.39 103.29,343.27 105.06,339.03 C106.83,334.79 112.47,332.56 116.88,333.5 C121.29,334.44 128.25,338.33 132.71,337.44 C137.17,336.55 148.2,333.700676 153.32,336.170676 C158.44,338.640676 168.23,350.6 174.76,351.17 C181.29,351.74 190.29,348.17 193.29,353.17 C196.29,358.17 193.979383,366.630082 191.859383,369.450082 C189.739383,372.270082 190.12,372.41 189.59,377.17 C189.06,381.93 190.122305,392.637386 194.882305,395.467386 C199.642305,398.297386 201.68,403.95 199.02,406.36 C196.36,408.77 179.7,424.94 165.76,430.36 C151.82,435.78 144.06,434.61 134.18,434.73 C124.3,434.85 105.462044,435.584475 98.4050309,428.535268 C91.9984163,424.291856 72.838903,403.162781 70.568903,398.492781 C68.298903,393.822781 72.23,384.09 72.23,384.09 C72.23,384.09 76.29,375.587839 75.76,374.377839 L75.76,370.8 Z" id="Path" fill="#282828" fill-rule="nonzero"></path>
            <path d="M84.41,356 C84.41,356 78.06,363.94 78.76,368.18 C79.46,372.42 83,381.74 89,389 C95,396.26 107.35,411.42 117.41,404 C127.47,396.58 129.87,390.13 122.88,382.47 C122.88,382.47 121.47,380.93 126.06,381 C130.65,381.07 138.59,381 138.59,381 C138.59,381 140.18,381.64 138.59,384.09 C137,386.54 134.27,391.83 135.28,395.36 C136.29,398.89 140.35,414.24 154.12,408.94 C167.89,403.64 183.23,394.65 185.18,385.12 C187.13,375.59 187.11,363.65 183.94,361.3 C182.44,359.64 163.07,366.66 163.07,366.66 C163.07,366.66 116.94,367.08 115.41,366.66 C113.88,366.24 84.41,356 84.41,356 Z" id="Path" fill="#F9BF97" fill-rule="nonzero"></path>
            <path d="M183.94,359.06 C174.94,362.68 161.18,361.8 149.76,361.44 C143.23736,361.186195 136.706791,361.662487 130.29,362.86 C130.29,362.86 128,361.62 112.65,361.44 C102.930546,361.192984 93.3468262,359.09909 84.41,355.27 C84.41,355.27 95.7,370.62 112.12,374 C128.54,377.38 127.12,379.47 143.18,376.83 C159.24,374.19 178.82,366.39 183.94,359.06 Z" id="Path" fill="#EE7171" fill-rule="nonzero"></path>
            <path d="M84.41,355.27 C84.41,355.27 97.09,353.5 106.41,351.91 C115.73,350.32 119.65,351.74 122.83,351.91 C126.01,352.08 130.67,354.17 132.66,353.22 C135.691508,351.926071 138.944443,351.229984 142.24,351.17 C145.6,351.17 176.48,359.5 183.89,359.06 C183.89,359.06 178.68,361.48 166.59,361.77 C154.5,362.06 140.67,360.77 133.29,362.33 C125.91,363.89 127.07,361.48 111.36,361.42 C102.030511,361.404827 92.8224928,359.303553 84.41,355.27 L84.41,355.27 Z" id="Path" fill="#EE7171" fill-rule="nonzero"></path>
            <path d="M259.43,228.11 C259.43,228.11 268.12,223.97 268.82,230.79 C269.52,237.61 273.29,276.68 262,305.85 C250.71,335.02 248.2,318.62 248.2,318.62 C248.2,318.62 256.62,232.48 259.43,228.11 Z" id="Path" fill="#D9A27C" fill-rule="nonzero"></path>
            <path d="M30.41,234.21 C30.41,234.21 26.53,227.5 25.82,238.8 C25.11,250.1 30.41,280.8 28.12,298.11 C25.83,315.42 35.12,309.91 35.12,309.91 L35.12,266.33 L30.41,234.21 Z" id="Path" fill="#D9A27C" fill-rule="nonzero"></path>
            <path d="M192.5,236.81 C197.82796,236.836903 203.12835,237.576805 208.26,239.01 C210.852532,239.703634 213.36347,240.672474 215.75,241.9 C218.104119,243.191377 220.243024,244.8411 222.09,246.79 L222.02,246.86 C219.890841,245.322934 217.640073,243.961771 215.29,242.79 C212.933546,241.642653 210.509003,240.640776 208.03,239.79 C205.516151,238.994874 202.954324,238.360263 200.36,237.89 C197.765276,237.381483 195.139395,237.047402 192.5,236.89 L192.5,236.81 Z" id="Path" fill="#424242" fill-rule="nonzero"></path>
            <path d="M63,239.28 C69.728646,236.802112 76.9852088,236.112979 84.06,237.28 C84.9507387,237.393483 85.8327605,237.567214 86.7,237.8 C87.56,238.02 88.45,238.21 89.3,238.47 L91.84,239.39 C92.6769754,239.71336 93.4920296,240.090824 94.28,240.52 L95.47,241.14 C95.8730817,241.337425 96.2608302,241.564726 96.63,241.82 C97.37,242.32 98.13,242.82 98.86,243.33 C99.6153318,243.830648 100.3308,244.38898 101,245 C101.66,245.6 102.34,246.18 103,246.79 L102.94,246.86 C102.19,246.37 101.47,245.86 100.74,245.36 C100.047316,244.816573 99.315311,244.325228 98.55,243.89 C97.78,243.47 97.03,243 96.28,242.56 C95.9092005,242.324586 95.5175541,242.123742 95.11,241.96 L93.92,241.41 C92.3447141,240.654744 90.7289205,239.987061 89.08,239.41 C88.25,239.12 87.4,238.92 86.56,238.66 C85.7200751,238.409118 84.8650068,238.212052 84,238.07 C80.5436864,237.393521 77.013359,237.174977 73.5,237.42 C69.967882,237.633496 66.4785739,238.30581 63.12,239.42 L63,239.28 Z" id="Path" fill="#424242" fill-rule="nonzero"></path>
            <path d="M168.64,251.68 C171.632123,248.952318 175.05068,246.732959 178.76,245.11 C182.482906,243.463737 186.467579,242.488728 190.53,242.23 C194.61158,241.939054 198.710377,242.459051 202.59,243.76 C206.431985,245.09394 210.027094,247.05368 213.23,249.56 L213.17,249.65 C209.746276,247.581991 206.091157,245.92393 202.28,244.71 C198.498727,243.493601 194.541214,242.915689 190.57,243 C186.592749,243.173712 182.676773,244.043552 179,245.57 C175.271912,247.061039 171.812889,249.151991 168.76,251.76 L168.64,251.68 Z" id="Path" fill="#424242" fill-rule="nonzero"></path>
            <path d="M96.16,247.57 C93.1340492,245.399108 89.6639081,243.92703 86,243.26 C82.3666304,242.561174 78.6333696,242.561174 75,243.26 L72.31,243.93 C71.8639604,244.043024 71.4262537,244.186698 71,244.36 L69.71,244.85 C67.9995721,245.498695 66.329868,246.250061 64.71,247.1 C63.04,247.9 61.51,248.95 59.88,249.85 C58.36,250.91 56.88,251.98 55.27,253.01 L55.2,252.93 C56.6,251.69 58.0266667,250.47 59.48,249.27 C60.25,248.73 61.05,248.27 61.83,247.71 L63,247 L63.59,246.61 L64.22,246.28 C65.8616122,245.374615 67.5779121,244.611815 69.35,244 L70.69,243.54 C71.1360248,243.375167 71.5940345,243.244785 72.06,243.15 L74.83,242.55 C78.566718,241.928296 82.3873748,242.01991 86.09,242.82 C89.7775409,243.623868 93.2407719,245.235944 96.23,247.54 L96.16,247.57 Z" id="Path" fill="#424242" fill-rule="nonzero"></path>
            <path d="M172.52,258 C175.403718,259.39438 178.418427,260.499773 181.52,261.3 C184.608461,262.141012 187.789561,262.594495 190.99,262.65 C192.575619,262.662586 194.159012,262.528684 195.72,262.25 C197.28,261.95 198.85,261.59 200.4,261.25 C201.95,260.91 203.5,260.46 205.02,259.96 C205.78,259.71 206.53,259.45 207.27,259.13 C208.013664,258.840643 208.727092,258.478904 209.4,258.05 L209.47,258.12 C208.213939,259.171769 206.795498,260.012703 205.27,260.61 C203.764066,261.23704 202.221185,261.771371 200.65,262.21 C199.081803,262.655146 197.489135,263.009072 195.88,263.27 C194.25333,263.491439 192.610247,263.568407 190.97,263.5 C187.716228,263.338121 184.495037,262.773825 181.38,261.82 C178.266519,260.88736 175.252074,259.651438 172.38,258.13 L172.52,258 Z" id="Path" fill="#424242" fill-rule="nonzero"></path>
            <path d="M64.295,258.611538 C67.1787175,260.005918 70.1934266,261.111311 73.295,261.911538 C76.3834609,262.75255 79.5645608,263.206033 82.765,263.261538 C84.3506195,263.274125 85.9340123,263.140223 87.495,262.861538 C89.055,262.561538 90.625,262.201538 92.175,261.861538 C93.725,261.521538 95.275,261.071538 96.795,260.571538 C97.555,260.321538 98.305,260.061538 99.045,259.741538 C99.788664,259.452181 100.502092,259.090443 101.175,258.661538 L101.245,258.731538 C99.9889393,259.783308 98.5704978,260.624241 97.045,261.221538 C95.5390659,261.848578 93.9961846,262.382909 92.425,262.821538 C90.8568026,263.266684 89.2641347,263.62061 87.655,263.881538 C86.0283301,264.102978 84.3852472,264.179945 82.745,264.111538 C79.4912282,263.94966 76.2700368,263.385363 73.155,262.431538 C70.0415189,261.498899 67.0270738,260.262976 64.155,258.741538 L64.295,258.611538 Z" id="Path-Copy" fill="#424242" fill-rule="nonzero" transform="translate(82.700000, 261.373615) scale(-1, 1) translate(-82.700000, -261.373615) "></path>
            <path d="M153.32,243.11 C152.108043,244.000214 151.044851,245.076906 150.17,246.3 C149.264142,247.485873 148.527121,248.791644 147.98,250.18 C147.69324,250.868624 147.446169,251.573112 147.24,252.29 C147.03,253 146.91,253.74 146.74,254.47 C146.57,255.2 146.56,255.94 146.5,256.69 L146.5,258.92 C146.695445,261.91049 147.150491,264.878329 147.86,267.79 L148.77,272.22 L149.23,274.42 L149.5,275.52 C149.54411,275.702605 149.597513,275.88284 149.66,276.06 C149.66,276.13 149.72,276.28 149.78,276.26 C149.795106,276.170634 149.795106,276.079366 149.78,275.99 C149.794944,276.082735 149.794944,276.177265 149.78,276.27 C149.67,276.27 149.66,276.14 149.62,276.07 C149.58,276 149.49,275.72 149.43,275.54 L149.11,274.45 L148.52,272.27 L147.47,267.87 C147.14,266.4 146.79,264.94 146.53,263.45 C146.41,262.7 146.26,261.96 146.17,261.21 L145.99,258.93 C145.872688,255.877645 146.43632,252.837452 147.64,250.03 C148.824096,247.222464 150.797149,244.818673 153.32,243.11 Z" id="Path" fill="#1D1D1B" fill-rule="nonzero"></path>
            <path d="M116.88,242.38 C118.473446,244.012836 119.769574,245.911341 120.71,247.99 C121.661806,250.075097 122.269674,252.300569 122.51,254.58 C122.685143,256.851414 122.655021,259.133998 122.42,261.4 C122.228128,263.672224 121.667455,265.898029 120.76,267.99 C121.165435,266.934745 121.453828,265.83818 121.62,264.72 C121.824494,263.612368 121.964728,262.493833 122.04,261.37 C122.22,259.126939 122.22,256.873061 122.04,254.63 C121.826989,252.397917 121.270425,250.212139 120.39,248.15 C119.512796,246.063152 118.329832,244.118508 116.88,242.38 L116.88,242.38 Z" id="Path" fill="#1D1D1B" fill-rule="nonzero"></path>
            <g id="Group" opacity="0.9" transform="translate(91.000000, 357.000000)" fill="#B75036" fill-rule="nonzero">
                <path d="M0.57,0 C3.73,0.86 6.91,1.62 10.12,2.16 C13.3155773,2.74316349 16.5402494,3.1537584 19.78,3.39 L22.2,3.51 L24.62,3.56 C26.26,3.56 27.91,3.56 29.56,3.67 C31.21,3.78 32.87,3.9 34.56,4.11 C36.25,4.32 37.86,4.64 39.39,4.82 C40.1431647,4.91150657 40.9035366,4.92825485 41.66,4.87 C42.42,4.82 43.24,4.72 44.03,4.61 C45.64,4.4 47.26,4.14 48.9,3.95 C52.1978741,3.54894107 55.5271053,3.47190654 58.84,3.72 C62.12,3.91 65.38,4.2 68.64,4.44 C70.27,4.57 71.89,4.7 73.52,4.78 C74.34,4.83 75.15,4.86 75.97,4.86 C76.7849831,4.89348012 77.6013355,4.85667735 78.41,4.75 C76.8048263,5.11165027 75.1653757,5.29939921 73.52,5.31 C71.88,5.38 70.24,5.4 68.6,5.42 C65.32,5.42 62.05,5.34 58.79,5.28 C55.563875,5.1885748 52.3357837,5.3692141 49.14,5.82 L44.3,6.55 C43.47,6.67 42.67,6.77 41.8,6.85 C40.925161,6.93005683 40.044839,6.93005683 39.17,6.85 C37.46,6.62 35.9,6.29 34.3,6.08 C32.7,5.87 31.1,5.72 29.49,5.6 C27.88,5.48 26.25,5.4 24.63,5.34 L22.15,5.22 L19.67,4.98 C13.1070041,4.19358836 6.68145239,2.51823508 0.57,0 Z" id="Path"></path>
            </g>
            <rect id="Rectangle" fill="#FFFFFF" fill-rule="nonzero" x="192.98" y="247.69" width="3.64" height="3.64" rx="0.9"></rect>
            <rect id="Rectangle" fill="#FFFFFF" fill-rule="nonzero" x="192.54" y="247.07" width="2.58" height="2.58" rx="0.9"></rect>
            <rect id="Rectangle" fill="#FFFFFF" fill-rule="nonzero" transform="translate(81.730000, 249.930000) rotate(-180.000000) translate(-81.730000, -249.930000) " x="79.91" y="248.11" width="3.64" height="3.64" rx="0.9"></rect>
            <rect id="Rectangle" fill="#FFFFFF" fill-rule="nonzero" transform="translate(82.700000, 248.790000) rotate(-180.000000) translate(-82.700000, -248.790000) " x="81.41" y="247.5" width="2.58" height="2.58" rx="0.9"></rect>
        </g>
    </g>
</svg>