<?xml version="1.0" encoding="UTF-8"?>
<svg width="50px" height="33px" viewBox="0 0 50 33" version="1.1" xmlns="http://www.w3.org/2000/svg" xmlns:xlink="http://www.w3.org/1999/xlink">
	    <desc>Create with Flow.</desc>
	    <defs></defs>
	    <g id="Page-1" stroke="none" stroke-width="1" fill="none" fill-rule="evenodd">
	        <g id="pricing-1b" transform="translate(-169.000000, -44.000000)">
	            <g id="Group-Copy" transform="translate(169.000000, 44.000000)">
	                <g id="Flow-logo">
	                    <path d="M18.048591,1.97466453 C18.048591,1.47384625 18.2484715,1.02042402 18.5732775,0.691811392 C18.8980834,0.364778633 19.3462531,0.16097561 19.8412698,0.16097561 L1.79267887,0.16097561 C0.802645419,0.16097561 0,0.973027966 0,1.97466453 L0,31.1832715 C0,32.797897 1.93009677,33.6083695 3.05910968,32.4645447 L18.048591,17.3009679 L18.048591,1.97466453 Z" id="Fill-7" fill="#FD0178"></path>
	                    <path d="M48.2166299,0.16097561 L30.2999334,0.16097561 C31.2904827,0.16097561 31.9725511,0.924040671 32.0702109,1.77557704 C32.1291168,2.28586693 31.9787517,2.82933356 31.5586596,3.25747151 L24.6682187,10.278302 L17.7777778,17.3007124 L17.7777778,31.182809 C17.7777778,32.7974105 19.6953201,33.6078709 20.8160824,32.465643 L49.4753561,3.25747151 C50.5961185,2.11524369 49.8024389,0.16097561 48.2166299,0.16097561" id="Fill-9" fill="#0000FF"></path>
	                    <polygon id="Fill-11" fill="#0000FF" points="17.7777778 17.2243902 17.7777778 17.2243902 24.7619048 10.1414634"></polygon>
	                    <polygon id="Fill-13" fill="#0000FF" points="30.4761905 0 30.4761905 0 30.4761905 0 19.6825397 0 19.6825397 0 19.6825397 0"></polygon>
	                    <path d="M19.6825397,0 C19.1248338,0 18.6199077,0.185409408 18.2539683,0.482926829 C18.6199077,0.185409408 19.1248338,0 19.6825397,0" id="Fill-15" fill="#0000FF"></path>
	                    <path d="M24.7619048,9.9804878 L31.6951451,3.06837515 C32.1178466,2.64696175 32.2691457,2.11358613 32.2098739,1.6097561 C32.2691457,2.11358613 32.1178466,2.64696175 31.6951451,3.06837515 L24.7619048,9.9804878 Z" id="Fill-17" fill="#0000FF"></path>
	                    <path d="M32.0634921,1.6097561 C31.9671698,0.760775142 31.2944431,0 30.3174603,0 C31.2944431,0 31.9671698,0.760775142 32.0634921,1.6097561" id="Fill-19" fill="#0000FF"></path>
	                    <path d="M19.5747405,0.16097561 C19.0785409,0.16097561 17.7777778,0.29962843 17.7777778,0.16097561 L17.7777778,17.5463415 L24.7355298,10.4232931 L31.6932817,3.30184731 C32.1174776,2.86757372 32.2693116,2.31631869 32.2098302,1.79871585 C32.1112164,0.934976136 31.4224851,0.16097561 30.4222593,0.16097561 L19.5747405,0.16097561 Z" id="Fill-21" fill="#FC41FC"></path>
	                </g>
	            </g>
	        </g>
	    </g>
	</svg>
